<?xml version="1.0" encoding="utf-8"?>
<!-- Generator: Adobe Illustrator 24.0.0, SVG Export Plug-In . SVG Version: 6.00 Build 0)  -->
<svg version="1.1" id="Capa_1" xmlns="http://www.w3.org/2000/svg" xmlns:xlink="http://www.w3.org/1999/xlink" x="0px" y="0px"
	 viewBox="0 0 500 500" style="enable-background:new 0 0 500 500;" xml:space="preserve">
<style type="text/css">
	.st0{fill:#FFFFFF;}
</style>
<g>
	<g>
		<path class="st0" d="M39.5,95.7l180.1,142.7c8.2,6.5,19.4,9.3,30.4,8.8c10.9,0.5,22.2-2.3,30.3-8.8L460.4,95.7
			c14.4-11.4,11.2-20.7-7.1-20.7H250H46.7C28.4,75,25.1,84.3,39.5,95.7z"/>
		<path class="st0" d="M473.4,133.3L276.6,282.7c-7.4,5.5-17,8.2-26.6,8.1c-9.6,0.1-19.3-2.6-26.6-8.1L26.6,133.3
			C12,122.2,0,128.2,0,146.5v245.2C0,410,15,425,33.3,425H250h216.7c18.3,0,33.3-15,33.3-33.3V146.5
			C500,128.2,488,122.2,473.4,133.3z"/>
	</g>
</g>
</svg>
