<?xml version="1.0" encoding="utf-8"?>
<!-- Generator: Adobe Illustrator 24.0.0, SVG Export Plug-In . SVG Version: 6.00 Build 0)  -->
<svg version="1.1" id="Capa_1" xmlns="http://www.w3.org/2000/svg" xmlns:xlink="http://www.w3.org/1999/xlink" x="0px" y="0px"
	 viewBox="0 0 500 500" style="enable-background:new 0 0 500 500;" xml:space="preserve">
<style type="text/css">
	.st0{fill:#FFFFFF;}
</style>
<g>
	<g>
		<g>
			<path class="st0" d="M411.4,322.5c-6.2-6.2-14.8-9.5-24.1-9.5c-9.9,0-19.4,3.9-26.2,10.6l-42.6,42.6l-11.4-6.3
				c-25.4-14.1-60-33.3-96.8-70.1s-56.2-71.7-70.3-97l-6.3-11.3l42.8-42.8c14.1-14.3,14.6-36.8,1.1-50.4L98.4,9.4
				c-6.2-6.2-14.6-9.5-24.1-9.5c-9.9,0-19.4,3.9-26.2,10.6L28.7,30l-1.8,3c-7.2,9.3-13.2,19.7-17.6,31c-4,10.7-6.7,21.1-7.9,31.3
				C-8.8,180,30.2,257.7,136.1,363.5c125.4,125.4,230.3,135.2,259.4,135.2c4.9,0,8.1-0.4,8.8-0.4c10.7-1.2,21.1-3.9,31.5-7.9
				c11.3-4.4,21.7-10.2,30.8-17.4l4.4-3.5l18.1-17.8c14.1-14.1,14.6-36.6,1.1-50.2L411.4,322.5z"/>
		</g>
	</g>
</g>
</svg>
