<?xml version="1.0" encoding="utf-8"?>
<!-- Generator: Adobe Illustrator 24.0.0, SVG Export Plug-In . SVG Version: 6.00 Build 0)  -->
<svg version="1.1" id="Capa_1" xmlns="http://www.w3.org/2000/svg" xmlns:xlink="http://www.w3.org/1999/xlink" x="0px" y="0px"
	 viewBox="0 0 499.9 499.9" style="enable-background:new 0 0 499.9 499.9;" xml:space="preserve">
<style type="text/css">
	.st0{fill:#FFFFFF;}
</style>
<path class="st0" d="M254.2,0C118.6,0,8.3,110.3,8.3,245.8c0,42.9,11.2,85,32.5,122.1L0.4,489c-1,2.9-0.3,6.1,1.8,8.3
	c1.6,1.7,3.8,2.6,6.1,2.6c0.7,0,1.4-0.1,2.1-0.3l132.2-34.8c34.3,17.5,72.8,26.7,111.5,26.7c135.6,0,245.8-110.3,245.8-245.8
	S389.7,0,254.2,0z M407.6,357.5L393,372.2c-18.5,18.5-39.1,27.9-61.3,27.9l0,0c-29.9,0-62.2-17.1-95.9-50.8l-84.9-84.9
	c-26.6-26.6-42.9-52.4-48.5-76.7c-6.8-29.6,1.8-56.6,25.6-80.5l14.7-14.7c9.4-9.4,24.7-11.7,36.5-5.5c22.2,11.7,45.2,50.2,47.7,54.6
	c4.6,8.1,6,16.4,4,23.5c-1.5,5.5-4.9,9.9-9.9,12.9c-6.7,5.6-14.6,12.6-16,14.4c-8.5,12.5-7.5,22.1,3.4,33l66.4,66.4
	c11,11,20.4,11.9,33.1,3.3c1.7-1.3,8.7-9.2,14.3-15.9c4.2-7,11.1-10.8,19.5-10.8c5.5,0,11.3,1.7,16.9,4.8
	c4.4,2.6,42.9,25.6,54.6,47.8C419.5,333.1,417.3,347.8,407.6,357.5z"/>
</svg>
