<svg xmlns="http://www.w3.org/2000/svg" width="1106.959" height="619.328" viewBox="0 0 1106.959 619.328"><g transform="translate(0)"><ellipse cx="470.823" cy="41.107" rx="470.823" ry="41.107" transform="translate(165.314 537.115)" fill="#0090cf" opacity="0.27"/><path d="M267.845,257.349c0,14.752-48.981,26.711-109.413,26.711S49.016,272.1,49.016,257.349s48.991-26.708,109.416-26.708S267.845,242.6,267.845,257.349Z" transform="translate(826.447 268.774)" fill="#0090cf" opacity="0.27"/><path d="M619.426,236.2c0,14.749-79.6,26.711-177.776,26.711S263.874,250.946,263.874,236.2s79.592-26.711,177.776-26.711S619.426,221.448,619.426,236.2Z" transform="translate(-212.53 222.247)" fill="#0090cf" opacity="0.27"/><ellipse cx="128.816" cy="26.71" rx="128.816" ry="26.71" transform="translate(0 459.044)" fill="#0090cf" opacity="0.27"/><g transform="translate(22.451 0)"><g transform="translate(43.603 24.651)"><rect width="249.199" height="258.204" transform="translate(221.446 343.737) rotate(-152.702)" fill="#fa944f"/><path d="M581.95,119.95,472.1,332.788,267.449,227.161Z" transform="translate(-252.546 0.68)" fill="#fea451"/><path d="M398.925,121.95,343.149,230.018l-3.536,2.724.244-6.149-4.874,3.759.241-6.149-4.883,3.752.238-6.148-4.865,3.761.234-6.155-4.861,3.765.25-6.143-4.868,3.758.237-6.145-4.868,3.759.244-6.149-4.874,3.759.237-6.152-4.865,3.765.247-6.149-4.874,3.758.244-6.149-4.868,3.762.244-6.148-1.919,1.487L347.736,95.531Z" transform="translate(-146.96 -53.025)" fill="#e0e1e3"/><rect width="35.855" height="34.71" transform="matrix(-0.889, -0.459, 0.459, -0.889, 207.105, 311.838)" fill="#d07d43"/><rect width="35.857" height="34.711" transform="translate(167.997 291.655) rotate(-152.7)" fill="#d07d43"/></g><g transform="translate(52.548 202.14)"><path d="M290.6,303.817a19.634,19.634,0,0,0,19.628,19.634H527.5a19.631,19.631,0,0,0,19.631-19.634l19.634-109.944a19.636,19.636,0,0,0-19.634-19.634H290.6a19.641,19.641,0,0,0-19.641,19.634Z" transform="translate(-257.551 -57.412)" fill="#ffd400"/><path d="M273.6,208.6l-2.636-14.726A19.641,19.641,0,0,1,290.6,174.239h256.53a19.636,19.636,0,0,1,19.634,19.634L564.144,208.6Z" transform="translate(-257.551 -57.412)" fill="#ff9f10"/><path d="M6.137,0h309.7a6.136,6.136,0,0,1,6.136,6.136v57.1a6.136,6.136,0,0,1-6.136,6.136H6.137A6.137,6.137,0,0,1,0,63.233V6.137A6.137,6.137,0,0,1,6.137,0Z" transform="translate(0 71.672)" fill="#ffd400"/><path d="M286.6,189.167H569.319a19.632,19.632,0,0,0,19.631-19.631v19.631A19.63,19.63,0,0,1,569.319,208.8H286.6a19.632,19.632,0,0,1-19.628-19.631V169.536A19.634,19.634,0,0,0,286.6,189.167Z" transform="translate(-266.974 -67.755)" fill="#ffb703"/><path d="M270.963,167.672a5.41,5.41,0,0,0,5.407,5.4h285a5.4,5.4,0,0,0,5.4-5.4h0a5.4,5.4,0,0,0-5.4-5.4h-285a5.407,5.407,0,0,0-5.407,5.4Z" transform="translate(-257.551 -83.731)" fill="#fff148"/><path d="M313.919,273.145a8.833,8.833,0,0,0,8.833,8.833h0a8.831,8.831,0,0,0,8.833-8.833V196.57a8.83,8.83,0,0,0-8.833-8.83h0a8.832,8.832,0,0,0-8.833,8.83Z" transform="translate(-159.798 -27.719)" fill="#ff9f10"/><path d="M325.271,273.145a8.834,8.834,0,0,0,8.84,8.833h0a8.835,8.835,0,0,0,8.833-8.833V196.57a8.834,8.834,0,0,0-8.833-8.83h0a8.833,8.833,0,0,0-8.84,8.83Z" transform="translate(-207.475 -27.719)" fill="#ff9f10"/><path d="M336.623,273.145a8.831,8.831,0,0,0,8.827,8.833h0a8.835,8.835,0,0,0,8.843-8.833V196.57a8.834,8.834,0,0,0-8.843-8.83h0a8.831,8.831,0,0,0-8.827,8.83Z" transform="translate(-255.142 -27.719)" fill="#ff9f10"/><path d="M347.979,273.145a8.833,8.833,0,0,0,8.836,8.833h0a8.827,8.827,0,0,0,8.827-8.833V196.57a8.827,8.827,0,0,0-8.827-8.83h0a8.833,8.833,0,0,0-8.836,8.83Z" transform="translate(-302.823 -27.719)" fill="#ff9f10"/><path d="M281.4,273.145a8.831,8.831,0,0,0,8.833,8.833h0a8.83,8.83,0,0,0,8.83-8.833V196.57a8.829,8.829,0,0,0-8.83-8.83h0a8.83,8.83,0,0,0-8.833,8.83Z" transform="translate(-23.221 -27.719)" fill="#ff9f10"/><path d="M292.748,273.145a8.837,8.837,0,0,0,8.833,8.833h0a8.831,8.831,0,0,0,8.836-8.833V196.57a8.831,8.831,0,0,0-8.836-8.83h0a8.836,8.836,0,0,0-8.833,8.83Z" transform="translate(-70.898 -27.719)" fill="#ff9f10"/><path d="M304.1,273.145a8.83,8.83,0,0,0,8.83,8.833h0a8.83,8.83,0,0,0,8.83-8.833V196.57a8.829,8.829,0,0,0-8.83-8.83h0a8.829,8.829,0,0,0-8.83,8.83Z" transform="translate(-118.567 -27.719)" fill="#ff9f10"/><g transform="translate(199.73)"><path d="M326.811,242.213c3.788,7.624,12.228,11.137,18.873,7.845h0c6.642-3.292,8.958-12.141,5.18-19.772L309.451,146.8c-3.782-7.624-12.228-11.137-18.87-7.838h0c-6.635,3.292-8.958,12.141-5.177,19.765Z" transform="translate(-283.591 -137.723)" fill="#ea3217"/><path d="M286.373,175.628a5.611,5.611,0,1,0,2.531-7.522A5.609,5.609,0,0,0,286.373,175.628Z" transform="translate(-234.954 -72.187)" fill="#ef5513"/></g><g transform="translate(48.713)"><path d="M356.655,242.213c-3.778,7.624-12.228,11.137-18.87,7.845h0c-6.642-3.292-8.958-12.141-5.173-19.772L374.017,146.8c3.781-7.624,12.224-11.137,18.869-7.838h0c6.642,3.292,8.958,12.141,5.18,19.765Z" transform="translate(-330.794 -137.723)" fill="#ea3217"/><path d="M357.317,175.628a5.609,5.609,0,1,1-2.531-7.522A5.613,5.613,0,0,1,357.317,175.628Z" transform="translate(-339.653 -72.187)" fill="#ef5513"/></g></g><g transform="translate(847.748)"><path d="M66.97,242.424l9.314-1.818-.941-14.447h-10.2Z" transform="translate(96.215 258.917)" fill="#fff"/><path d="M57.923,242.272c.7,1.984,25.249,10.014,28.336,11.214,5.548,2.15,8.379-5.068,2.716-9.6-3.58-2.863-20.5-13.21-20.5-13.21l-9.316,1.817S57.216,240.292,57.923,242.272Z" transform="translate(104.024 268.848)" fill="#005e67"/><path d="M89.052,242.424l-9.32-1.818.943-14.447h10.2Z" transform="translate(34.948 258.917)" fill="#fff"/><path d="M114.013,242.272c-.707,1.984-25.246,10.014-28.336,11.214-5.551,2.15-8.379-5.068-2.713-9.6,3.574-2.863,20.495-13.21,20.495-13.21l9.32,1.817S114.726,240.292,114.013,242.272Z" transform="translate(11.222 268.848)" fill="#005e67"/><path d="M99.478,396.9l-17.762-3.212L76.773,153.42h29.312Z" transform="translate(29.203 98.941)" fill="#005e67"/><g transform="translate(174.147 230.843)"><rect width="6.897" height="12.617" transform="matrix(-0.85, -0.527, 0.527, -0.85, 15.057, 14.358)" fill="#dc9b7c"/><path d="M58.709,158.124l10.26,5.5,3.4-5.5c4.809-7.768-5.346-13.424-9.876-6.12C61.781,153.165,58.709,158.124,58.709,158.124Z" transform="translate(-54.702 -142.467)" fill="#dc9b7c"/><path d="M60.068,162.288c-1.238,2.009,1.136,3.692,2.473,1.526s6.3-10.183,6.3-10.183L66.377,152.1S61.315,160.282,60.068,162.288Z" transform="translate(-53.146 -134.794)" fill="#dc9b7c"/><path d="M61.02,162.1c-1.245,2,1.129,3.686,2.47,1.523S69.8,153.443,69.8,153.443l-2.473-1.526S62.264,160.094,61.02,162.1Z" transform="translate(-57.137 -135.207)" fill="#dc9b7c"/><path d="M61.612,161.333c-1.241,2,1.133,3.692,2.473,1.529s6.306-10.183,6.306-10.183l-2.467-1.529S62.857,159.327,61.612,161.333Z" transform="translate(-59.63 -136.894)" fill="#dc9b7c"/><path d="M62.12,160.434c-1.238,2,1.129,3.692,2.473,1.532s6.312-10.187,6.312-10.187l-2.476-1.529S63.368,158.428,62.12,160.434Z" transform="translate(-61.773 -138.871)" fill="#dc9b7c"/><path d="M62.38,153.267c-1.68.873-1.043,3.586.915,2.771,3.081-1.289,4.537.006,4.537.006l3.219-7.157S65.445,151.693,62.38,153.267Z" transform="translate(-60.766 -141.871)" fill="#dc9b7c"/></g><rect width="19.642" height="21.153" transform="translate(129.437 94.542)" fill="#dc9b7c"/><path d="M67.9,249.182h62.751s9.716-122.664,4.281-128.471-18.953-10.833-34.332-10.833S68.2,116.6,65.307,120.711,67.9,249.182,67.9,249.182Z" transform="translate(38.07 3.179)" fill="#212121"/><path d="M92.1,112.4s-4.15,5.474-9.438,5.474-10.2-5.474-10.2-5.474v-8.312H92.1Z" transform="translate(56.975 -9.548)" fill="#c27e5f"/><path d="M66.134,128.512c0,33.692,20,46.281,30.8,46.281s30.451-11.8,30.451-45.494-12.33-53.105-30.451-53.105S66.134,94.824,66.134,128.512Z" transform="translate(41.943 -70.902)" fill="#dc9b7c"/><path d="M84.156,101.769c0,6.36,6.053,16.057,9.355,11.521,2.15-2.947,2.694-5.16,2.694-11.521S93.511,90.245,90.18,90.245,84.156,95.405,84.156,101.769Z" transform="translate(15.465 -40)" fill="#dc9b7c"/><path d="M75.332,101.769c0,6.36-6.053,16.057-9.355,11.521-2.15-2.947-2.694-5.16-2.694-11.521s2.694-11.524,6.024-11.524S75.332,95.405,75.332,101.769Z" transform="translate(103.117 -40)" fill="#dc9b7c"/><path d="M70.249,139c-1.984-.144.374-15.3-7.026-13.757,0-33.692,5.768-50.706,33.781-50.706,9.39,0,29.155,1.325,27.69,15.114,13.034-3.97,15.961,20.779,10.574,37.509-7.723-7.71-7.237,12.548-9.678,12.829-1.59.182-3.292-7.077-1.468-16.291,1.705-8.641-6.024-15.677-10.142-12.183-3.778-16.435-22.958,14.592-39.94,7.365C69.763,130.074,72.239,139.14,70.249,139Z" transform="translate(40.809 -74.54)" fill="#111010"/><path d="M90,123.96,75.715,116l6.986-7.6,10.491,4.727Z" transform="translate(45.483 -0.071)" fill="#4e2071"/><path d="M73.924,123.584l13.809-7.955L81.7,108.571l-11.447,4.18Z" transform="translate(68.425 0.305)" fill="#4e2071"/><path d="M52.461,113.264C54.221,114.4,95.4,140.1,97.667,170.122c1.664,22.053-23.87,56.861-23.87,56.861l-7.115-4.322S82.541,194.4,82.541,173.827,50.83,141.245,50.83,141.245Z" transform="translate(120.545 10.626)" fill="#212121"/><g transform="translate(0 224.413)"><rect width="6.898" height="12.618" transform="translate(17.688 11.345) rotate(-113.419)" fill="#dc9b7c"/><path d="M111.746,149.024l5.288,10.369,5.935-2.575c8.385-3.631,3.27-14.071-4.617-10.654Z" transform="translate(-103.874 -142.92)" fill="#dc9b7c"/><path d="M115.367,153.426c-2.163.941-1.177,3.676,1.158,2.659s10.99-4.761,10.99-4.761l-1.155-2.662S117.539,152.488,115.367,153.426Z" transform="translate(-111.856 -135.936)" fill="#dc9b7c"/><path d="M116.043,152.731c-2.169.937-1.177,3.673,1.158,2.659l10.983-4.757-1.152-2.668S118.2,151.79,116.043,152.731Z" transform="translate(-114.683 -137.471)" fill="#dc9b7c"/><path d="M116.087,151.76c-2.16.937-1.171,3.676,1.158,2.665s10.99-4.764,10.99-4.764L127.079,147Z" transform="translate(-114.889 -139.6)" fill="#dc9b7c"/><path d="M115.994,150.724c-2.16.941-1.174,3.682,1.158,2.668s10.986-4.761,10.986-4.761l-1.145-2.665S118.164,149.79,115.994,150.724Z" transform="translate(-114.496 -141.863)" fill="#dc9b7c"/><path d="M115.422,145.085c-1.875-.25-2.9,2.345-.832,2.787,3.27.7,3.718,2.6,3.718,2.6l6.731-4.041S118.839,145.536,115.422,145.085Z" transform="translate(-107.081 -143.841)" fill="#dc9b7c"/></g><path d="M168.659,148.663s-3.436,23.662-29.053,44.96c-17,14.138-50.677,28.445-50.677,28.445l-3.388-7.608s30.051-16.886,44.883-33.35c19.007-21.112,28.89-63.09,35.637-67.6S168.659,148.663,168.659,148.663Z" transform="translate(-62.684 10.38)" fill="#212121"/><path d="M117.443,393.686,99.6,396.9,74.681,190.324l-4.455-4.777L64.08,153.42h46.19Z" transform="translate(58.455 98.941)" fill="#007a85"/></g><g transform="translate(217.239 59.869)"><path d="M114.493,436.449A17.41,17.41,0,0,0,131.9,453.859l512.8,6.84s18.1-14.637,18.1-24.251V110.654a17.408,17.408,0,0,0-17.407-17.4H131.9c-9.614,0-25.383,17.26-25.383,17.26Z" transform="translate(7.829 -93.253)" fill="#04597e"/><path d="M5.44,0H542.864a5.441,5.441,0,0,1,5.441,5.441V355.164a5.438,5.438,0,0,1-5.437,5.438H5.439A5.439,5.439,0,0,1,0,355.162V5.44A5.44,5.44,0,0,1,5.44,0Z" transform="translate(109.395 12.852)" fill="#0090cf"/><path d="M856.651,238.989v25.425c0,9.611-8.734,17.4-19.493,17.4H89.855c-10.766,0-19.484-7.794-19.484-17.4V238.989Z" transform="translate(-70.371 227.265)" fill="#d8dadb"/><rect width="514.882" height="305.258" transform="translate(125.211 45.649)" fill="#8f87b9"/><path d="M623.61,407.653V107.521h7.336V412.78H116.064v-5.127Z" transform="translate(9.147 -61.872)" fill="#6b658a"/><path d="M194.238,108.212a7.339,7.339,0,1,0,7.336-7.339A7.338,7.338,0,0,0,194.238,108.212Z" transform="translate(181.076 -76.494)" fill="#8f87b9"/><g transform="translate(150.075 45.649)"><path d="M536.479,361.244V294.612L223.141,107.521H116.064Z" transform="translate(-46.461 -107.521)" fill="#fff" style="mix-blend-mode:soft-light;isolation:isolate"/><path d="M606.083,406.9V383.1L149.264,107.521h-33.2Z" transform="translate(-116.064 -107.521)" fill="#fff" style="mix-blend-mode:soft-light;isolation:isolate"/></g><path d="M70.371,302.784H856.65l-137.52-92.8H186.893Z" transform="translate(-70.37 163.471)" fill="#fff"/><path d="M671.013,214.093l82.513,55.675H90.309l69.919-55.675Z" transform="translate(-31.033 172.511)" fill="#d3d5d6"/></g><g transform="translate(386.304 121.697)"><rect width="416.213" height="287.139" fill="#fff"/><rect width="416.213" height="34.441" fill="#00a1ed"/><path d="M236.1,125.039a10.878,10.878,0,1,0,10.881-10.874A10.883,10.883,0,0,0,236.1,125.039Z" transform="translate(-170.84 -109.09)" fill="#fff"/><path d="M245.5,125.039a10.876,10.876,0,1,0,10.881-10.874A10.881,10.881,0,0,0,245.5,125.039Z" transform="translate(-210.336 -109.09)" fill="#fff"/><path d="M253.887,125.039a10.874,10.874,0,1,0,10.871-10.874A10.873,10.873,0,0,0,253.887,125.039Z" transform="translate(-245.544 -109.09)" fill="#fff"/><path d="M136.146,123.185a8.339,8.339,0,0,0,8.341,8.337H403.352a8.332,8.332,0,0,0,8.334-8.337h0a8.336,8.336,0,0,0-8.334-8.341H144.487a8.344,8.344,0,0,0-8.341,8.341Z" transform="translate(-4.904 -107.596)" fill="#fff"/><rect width="144.293" height="144.297" transform="translate(238.561 81.209)" fill="#594f9c"/><rect width="175.474" height="19.215" transform="translate(25.382 81.209)" fill="#c7c9cb"/><rect width="175.474" height="13.775" transform="translate(25.382 105.863)" fill="#c7c9cb"/><rect width="113.844" height="13.772" transform="translate(87.012 125.446)" fill="#c7c9cb"/><rect width="154.81" height="13.785" transform="translate(46.046 175.47)" fill="#c7c9cb"/><rect width="113.844" height="13.778" transform="translate(87.012 195.053)" fill="#c7c9cb"/><g transform="translate(255.112 112.748)"><path d="M157.618,180.231a8.934,8.934,0,1,0,8.936-8.939A8.933,8.933,0,0,0,157.618,180.231Z" transform="translate(-92.512 -96.198)" fill="#fff"/><path d="M172.8,180.231a8.934,8.934,0,1,0,8.936-8.939A8.933,8.933,0,0,0,172.8,180.231Z" transform="translate(-156.274 -96.198)" fill="#fff"/><path d="M216.165,169.15H148.8l18.37,43.219,62.115-1.747s8.254-29.7,13.012-47.615,17.7-15.014,17.7-15.014" transform="translate(-148.797 -147.82)" fill="none" stroke="#fff" stroke-linecap="round" stroke-linejoin="round" stroke-width="2.689"/></g></g><g transform="translate(0 375.048)"><path d="M328.594,293.384c0,2.819,4.486,7.589,4.486,7.589l166.114-2.489a4.925,4.925,0,0,0,4.735-5.1l2.051-95.733s-4.169-5.884-6.786-5.884H333.326a4.922,4.922,0,0,0-4.732,5.09Z" transform="translate(-328.594 -191.768)" fill="#1e0732"/><path d="M328.267,294.631a4.923,4.923,0,0,0,4.722,5.1H498.867a4.925,4.925,0,0,0,4.725-5.1v-96.52a4.919,4.919,0,0,0-4.725-5.1H332.989a4.916,4.916,0,0,0-4.722,5.1Z" transform="translate(-325.16 -189.025)" fill="#301849"/><g transform="translate(133.052 33.196)"><g transform="translate(0)"><path d="M1.477,0H32.1A1.477,1.477,0,0,1,33.58,1.477v30.63A1.477,1.477,0,0,1,32.1,33.583H1.479A1.479,1.479,0,0,1,0,32.1V1.477A1.477,1.477,0,0,1,1.477,0Z" transform="translate(0 0.002)" fill="#c7c9cb"/><path d="M363.359,230.813c-15.433-.416-25.77-12.058-31.4-25.546a4.728,4.728,0,0,1,4.428-3.123h24.126a4.736,4.736,0,0,1,4.732,4.735V231c0,.064-.022.125-.022.189A5.352,5.352,0,0,0,363.359,230.813Z" transform="translate(-331.66 -202.144)" fill="#e0e1e3"/></g><line y2="33.583" transform="translate(26.425 0.002)" fill="none" stroke="#b5b7ba" stroke-miterlimit="10" stroke-width="0.416"/><line y2="33.583" transform="translate(7.867 0.002)" fill="none" stroke="#b5b7ba" stroke-miterlimit="10" stroke-width="0.416"/><line x1="7.867" transform="translate(0 6.731)" fill="none" stroke="#b5b7ba" stroke-miterlimit="10" stroke-width="0.416"/><line x1="7.867" transform="translate(0 16.795)" fill="none" stroke="#b5b7ba" stroke-miterlimit="10" stroke-width="0.416"/><line x1="7.867" transform="translate(0 26.855)" fill="none" stroke="#b5b7ba" stroke-miterlimit="10" stroke-width="0.416"/><line x1="7.155" transform="translate(26.425 6.731)" fill="none" stroke="#b5b7ba" stroke-miterlimit="10" stroke-width="0.416"/><line x1="7.155" transform="translate(26.425 16.795)" fill="none" stroke="#b5b7ba" stroke-miterlimit="10" stroke-width="0.416"/><line x1="7.155" transform="translate(26.425 26.855)" fill="none" stroke="#b5b7ba" stroke-miterlimit="10" stroke-width="0.416"/></g><rect width="98.854" height="12.188" transform="translate(10.029 16.214)" fill="#b5b7ba" style="mix-blend-mode:multiply;isolation:isolate"/><rect width="98.854" height="5.011" transform="translate(10.029 37.8)" fill="#b5b7ba" style="mix-blend-mode:multiply;isolation:isolate"/><rect width="16.64" height="5.011" transform="translate(149.992 90.67)" fill="#fff"/><rect width="16.643" height="5.011" transform="translate(95.461 90.67)" fill="#fff"/><rect width="28.544" height="5.011" transform="translate(116.756 90.67)" fill="#fff"/><rect width="61.837" height="5.018" transform="translate(10.029 47.485)" fill="#b5b7ba" style="mix-blend-mode:multiply;isolation:isolate"/><path d="M373.422,240.877a3.5,3.5,0,0,0,4.946,0l10.759-10.763a3.484,3.484,0,0,0,0-4.949L378.368,214.4a3.5,3.5,0,0,0-4.946,0l-10.756,10.762a3.5,3.5,0,0,0,0,4.949Z" transform="translate(-318.493 -144.242)" fill="#cd3d4d"/><path d="M1.093,0H21.122a1.093,1.093,0,0,1,1.093,1.093V21.121a1.094,1.094,0,0,1-1.094,1.094H1.093A1.093,1.093,0,0,1,0,21.122V1.093A1.093,1.093,0,0,1,1.093,0Z" transform="matrix(-0.707, -0.707, 0.707, -0.707, 36.412, 99.107)" fill="#cb1d47"/></g><g transform="translate(249.053 105.652)"><path d="M91.459,131.012c0,22.354,17.088,40.458,38.155,40.458,21.083,0,38.174-18.1,38.174-40.458Z" transform="translate(519.212 -55.993)" fill="#b81f38"/><path d="M115.317,131.012c0,22.354,17.091,40.458,38.168,40.458s38.171-18.1,38.171-40.458Z" transform="translate(419.015 -55.993)" fill="#c2c4c6"/><path d="M139.178,131.012c0,22.354,17.087,40.458,38.165,40.458s38.171-18.1,38.171-40.458Z" transform="translate(318.819 -55.993)" fill="#b81f38"/><path d="M163.038,131.012c0,22.354,17.091,40.458,38.168,40.458s38.165-18.1,38.165-40.458Z" transform="translate(218.626 -55.993)" fill="#c2c4c6"/><path d="M186.9,131.012c0,22.354,17.084,40.458,38.168,40.458s38.165-18.1,38.165-40.458Z" transform="translate(118.435 -55.993)" fill="#b81f38"/><path d="M210.756,131.012c0,22.354,17.091,40.458,38.165,40.458s38.168-18.1,38.168-40.458Z" transform="translate(18.244 -55.993)" fill="#c2c4c6"/><path d="M234.615,131.012c0,22.354,17.081,40.458,38.168,40.458,21.071,0,38.161-18.1,38.161-40.458Z" transform="translate(-81.944 -55.993)" fill="#b81f38"/><path d="M258.473,131.012c0,22.354,17.091,40.458,38.174,40.458s38.165-18.1,38.165-40.458Z" transform="translate(-182.141 -55.993)" fill="#c2c4c6"/><path d="M282.334,131.012c0,22.354,17.088,40.458,38.164,40.458s38.168-18.1,38.168-40.458Z" transform="translate(-282.334 -55.993)" fill="#b81f38"/><g transform="translate(0.911)"><path d="M209.068,107.563H645.232l132.315,75.018H91.459Z" transform="translate(-91.459 -107.563)" fill="#ff405f"/><path d="M203.186,107.563H543.18l106.974,75.018H115.317Z" transform="translate(-40.396 -107.563)" fill="#fff"/><path d="M188.355,107.563H431.546l90.168,75.018H139.178Z" transform="translate(11.708 -107.563)" fill="#ff405f"/><path d="M192.383,107.563H337.4l53.769,75.018H163.059Z" transform="translate(65.848 -107.563)" fill="#fff"/><path d="M196.717,107.563h48.5l17.99,75.018h-76.3Z" transform="translate(117.515 -107.563)" fill="#ff405f"/></g></g></g></g></svg>