<svg xmlns="http://www.w3.org/2000/svg" xmlns:xlink="http://www.w3.org/1999/xlink" width="812" height="539.351" viewBox="0 0 812 539.351"><defs><linearGradient id="a" y1="0.5" x2="1" y2="0.5" gradientUnits="objectBoundingBox"><stop offset="0" stop-color="#cff7ff"/><stop offset="1" stop-color="#b6e3ff"/></linearGradient><linearGradient id="b" x1="0.5" y1="-0.057" x2="0.5" y2="1.059" gradientUnits="objectBoundingBox"><stop offset="0" stop-color="#fff"/><stop offset="1" stop-color="#e3ffff"/></linearGradient><linearGradient id="c" x1="-1.045" y1="2.474" x2="0.931" y2="-0.051" gradientUnits="objectBoundingBox"><stop offset="0" stop-color="#e5fcff"/><stop offset="1" stop-color="#cef"/></linearGradient><linearGradient id="d" x1="-1.488" y1="3.042" x2="0.487" y2="0.517" xlink:href="#c"/><linearGradient id="e" x1="-0.516" y1="1.798" x2="1.46" y2="-0.727" xlink:href="#c"/><linearGradient id="f" x1="-0.959" y1="2.365" x2="1.016" y2="-0.16" xlink:href="#c"/><linearGradient id="g" x1="0.013" y1="1.122" x2="1.989" y2="-1.403" xlink:href="#c"/><linearGradient id="h" x1="-0.43" y1="1.689" x2="1.545" y2="-0.836" xlink:href="#c"/><linearGradient id="i" x1="0.5" y1="1.024" x2="0.5" y2="-1.09" gradientUnits="objectBoundingBox"><stop offset="0" stop-color="#fff" stop-opacity="0"/><stop offset="1" stop-color="#0082c9"/></linearGradient></defs><g transform="translate(-262.132 -170.336)"><g transform="translate(262.132 170.336)"><path d="M1047.911,368.994c39.929,94.358,26.3,139.709,11,162.9-93.517,141.775-585.083-35.524-706.1-43.912-2.629-.181-26.481-4.99-54.838-16.71-15.916-6.578-31.152-18.714-34.574-35.613-16.843-83.287,139.561-76.179,183.019-74.421,98.976,4.026,198.142,9.565,296.986,14.1,61.149,2.807,107.577,16.134,148.843-12.117,31.213-21.368,39.341-50.159,67.142-54.235C992.7,304.1,1025.494,338.947,1047.911,368.994Z" transform="translate(-262.132 -47.306)" fill="url(#a)"/><g transform="translate(29.996 0)"><g transform="translate(0 179.163)"><path d="M337.042,392.578,300.1,277.818s-26.519,53.628,27.986,117.643Z" transform="translate(-264.069 -253.807)" fill="#c9e1fe"/><path d="M334,392.578,297.06,277.818s52.825,28.086,45.9,111.876Z" transform="translate(-261.031 -253.807)" fill="#e3effe"/><path d="M332.615,370.606,278.18,297.725s-5.815,44.766,48.747,77.13Z" transform="translate(-278 -236.084)" fill="#bcc0fb"/><path d="M332.53,370.6,278.1,297.726s44.575,7.126,60.125,68.629Z" transform="translate(-277.916 -236.083)" fill="#d6d8fb"/><path d="M321.982,308.127a.948.948,0,0,0-1.686-.868l-5.635,10.99-5.015-15.576,6.5-12.673a.948.948,0,1,0-1.686-.866l-5.635,10.988-5.34-16.587a.946.946,0,1,0-1.8.58l5.338,16.586-10.986-5.637a.948.948,0,0,0-.864,1.688l12.673,6.5,5.013,15.574-10.986-5.637a.948.948,0,0,0-.864,1.688l12.671,6.5,5.015,15.574-10.986-5.637a.948.948,0,0,0-.864,1.688l12.671,6.5,5.013,15.57-10.986-5.635a.947.947,0,0,0-.864,1.686l12.673,6.5,5.013,15.574-10.987-5.635a.947.947,0,0,0-.864,1.686l12.673,6.5,4.059,12.606a.946.946,0,1,0,1.8-.58l-4.058-12.6,6.5-12.674a.948.948,0,0,0-1.686-.866l-5.635,10.988L327.15,357.05l6.5-12.674a.948.948,0,1,0-1.686-.866L326.329,354.5l-5.013-15.572,6.5-12.673a.948.948,0,0,0-1.686-.868l-5.637,10.988L315.481,320.8Z" transform="translate(-263.171 -249.301)" fill="#b4d5fe"/><path d="M341.873,370.606l54.435-72.881s5.815,44.766-48.747,77.13Z" transform="translate(-221.134 -236.084)" fill="#d6d8fb"/><path d="M344.553,370.6l54.435-72.879s-44.575,7.126-60.125,68.629Z" transform="translate(-223.814 -236.083)" fill="#bcc0fb"/><path d="M331.555,392.578,368.5,277.818s26.519,53.628-27.986,117.643Z" transform="translate(-230.32 -253.807)" fill="#e3effe"/><path d="M336.068,392.578l36.944-114.76s-52.825,28.086-45.9,111.876Z" transform="translate(-234.833 -253.807)" fill="#c9e1fe"/><path d="M347.34,308.127a.948.948,0,0,1,1.686-.868l5.635,10.99,5.015-15.576L353.176,290a.948.948,0,1,1,1.686-.866l5.635,10.988,5.34-16.587a.946.946,0,1,1,1.8.58L362.3,300.7l10.986-5.637a.948.948,0,0,1,.864,1.688l-12.673,6.5-5.013,15.574,10.986-5.637a.948.948,0,0,1,.864,1.688l-12.673,6.5-5.013,15.574,10.986-5.637a.948.948,0,0,1,.864,1.688l-12.671,6.5-5.013,15.57,10.986-5.635a.947.947,0,1,1,.862,1.686l-12.671,6.5L338.961,373.2l10.986-5.635a.947.947,0,0,1,.864,1.686l-12.673,6.5-4.058,12.606a.946.946,0,1,1-1.8-.58l4.059-12.6-6.5-12.674a.948.948,0,1,1,1.686-.866l5.635,10.988,5.013-15.574-6.5-12.674a.948.948,0,1,1,1.686-.866l5.635,10.988,5.013-15.572-6.5-12.673a.948.948,0,0,1,1.686-.868l5.635,10.988,5.015-15.574Z" transform="translate(-231.943 -249.301)" fill="#b4d5fe"/><rect width="135.75" height="13.742" rx="2.103" transform="translate(19.802 131.232)" fill="#f7941d"/><path d="M352.469,341.809H292.837l19.028,68.25a10.022,10.022,0,0,0,9.654,7.331h61.9a10.022,10.022,0,0,0,9.652-7.331l19.028-68.25Z" transform="translate(-264.791 -196.836)" fill="#ffc100"/><path d="M335.488,396.348V265.116s-45.367,46.723-10.244,131.232Z" transform="translate(-247.811 -265.116)" fill="#bcc0fb"/><path d="M324.383,396.348V265.116s45.365,46.723,10.242,131.232Z" transform="translate(-236.705 -265.116)" fill="#d6d8fb"/><path d="M342.166,303.612a1.032,1.032,0,1,0-1.457-1.461l-9.506,9.506V293.846l10.964-10.964a1.031,1.031,0,1,0-1.457-1.459l-9.506,9.506V271.962a1.03,1.03,0,0,0-2.06,0v18.965l-9.5-9.5a1.031,1.031,0,1,0-1.457,1.459l10.962,10.964v17.809l-9.5-9.5a1.032,1.032,0,0,0-1.457,1.461l10.962,10.962v17.81l-9.5-9.5a1.031,1.031,0,1,0-1.457,1.459L329.142,335.3v17.809l-9.5-9.506a1.032,1.032,0,1,0-1.457,1.461l10.962,10.962v17.81l-9.5-9.5a1.031,1.031,0,1,0-1.457,1.459l10.962,10.962V391.17a1.03,1.03,0,0,0,2.06,0V376.755l10.964-10.964a1.031,1.031,0,1,0-1.457-1.459l-9.506,9.506v-17.81l10.964-10.964a1.032,1.032,0,1,0-1.457-1.461l-9.506,9.506V335.3l10.964-10.964a1.031,1.031,0,0,0-1.457-1.459l-9.506,9.5V314.575Z" transform="translate(-242.496 -259.938)" fill="#b0b4fb"/></g><g transform="translate(580.076 321.154)"><rect width="127.152" height="78.561" rx="4.618" fill="#ffc100"/><rect width="127.152" height="16.49" transform="translate(0 11.399)" fill="#1d1f45"/><rect width="51.187" height="7.214" transform="translate(70.425 36.821)" fill="#1d1f45"/><rect width="25.594" height="7.214" transform="translate(96.019 48.73)" fill="#fff"/></g><g transform="translate(247.89 0)"><path d="M617.893,214.109H439.824a13.9,13.9,0,0,0-13.9,13.9V517.181a13.9,13.9,0,0,0,13.9,13.9H617.893a13.9,13.9,0,0,0,13.9-13.9V228.007A13.9,13.9,0,0,0,617.893,214.109Z" transform="translate(-394.192 -131.365)" fill="#1d1f45"/><path d="M522.076,221.62H433.544V494.248H610.609V221.62Z" transform="translate(-387.409 -124.677)" fill="url(#b)"/><path d="M517.908,382.74H470.843a6.184,6.184,0,0,1-6.185-6.183h0a6.185,6.185,0,0,1,6.185-6.185h47.065a6.185,6.185,0,0,1,6.183,6.185h0A6.183,6.183,0,0,1,517.908,382.74Z" transform="translate(-359.708 7.757)" fill="#2f3170"/><rect width="74.429" height="72.383" transform="translate(55.535 126.197)" fill="url(#c)"/><rect width="74.43" height="72.383" transform="translate(139.609 126.197)" fill="url(#d)"/><rect width="74.429" height="72.383" transform="translate(55.535 206.815)" fill="url(#e)"/><rect width="74.43" height="72.383" transform="translate(139.609 206.815)" fill="url(#f)"/><rect width="74.429" height="72.383" transform="translate(55.535 287.432)" fill="url(#g)"/><rect width="74.43" height="72.383" transform="translate(139.609 287.432)" fill="url(#h)"/><path d="M489.441,263.876h0a19.238,19.238,0,0,1-19.24-19.238V221.62h38.477v23.018A19.238,19.238,0,0,1,489.441,263.876Z" transform="translate(-354.773 -124.678)" fill="#d6d8fb"/><path d="M469.085,263.876h0a19.237,19.237,0,0,1-19.238-19.238V221.62h38.475v23.018A19.237,19.237,0,0,1,469.085,263.876Z" transform="translate(-372.894 -124.678)" fill="#ff405f"/><path d="M448.73,263.876h0a19.238,19.238,0,0,1-19.238-19.238V221.62h38.477v23.018A19.238,19.238,0,0,1,448.73,263.876Z" transform="translate(-391.016 -124.678)" fill="#d6d8fb"/><path d="M428.376,263.876h0a19.237,19.237,0,0,1-19.238-19.238V221.62h38.475v23.018A19.237,19.237,0,0,1,428.376,263.876Z" transform="translate(-409.137 -124.678)" fill="#ff405f"/><path d="M449.847,237.693l11.007-34.125h30.217l-2.748,34.125Z" transform="translate(-372.894 -140.75)" fill="#ff6082"/><path d="M429.492,237.693h38.476l11.007-34.125H450.119Z" transform="translate(-391.016 -140.75)" fill="#e3effe"/><path d="M409.138,237.693l34.253-34.125H468.24l-20.626,34.125Z" transform="translate(-409.138 -140.75)" fill="#ff6082"/><path d="M509.794,263.876h0a19.238,19.238,0,0,0,19.24-19.238V221.62H490.556v23.018A19.237,19.237,0,0,0,509.794,263.876Z" transform="translate(-336.651 -124.678)" fill="#ff405f"/><path d="M530.149,263.876h0a19.237,19.237,0,0,0,19.238-19.238V221.62H510.911v23.018A19.237,19.237,0,0,0,530.149,263.876Z" transform="translate(-318.528 -124.678)" fill="#d6d8fb"/><path d="M550.5,263.876h0a19.238,19.238,0,0,0,19.239-19.238V221.62H531.265v23.018A19.238,19.238,0,0,0,550.5,263.876Z" transform="translate(-300.407 -124.678)" fill="#ff405f"/><path d="M530.327,237.693l-11.007-34.125H489.1l2.748,34.125Z" transform="translate(-337.945 -140.75)" fill="#ff6082"/><path d="M554.571,237.693H516.095l-11.007-34.125h28.858Z" transform="translate(-323.713 -140.75)" fill="#e3effe"/><path d="M579.456,237.693,545.2,203.568H520.354l20.626,34.125Z" transform="translate(-310.122 -140.75)" fill="#ff6082"/><path d="M9.252,0H53.567a9.251,9.251,0,0,1,9.251,9.251v219a9.252,9.252,0,0,1-9.252,9.252H9.251A9.251,9.251,0,0,1,0,228.252v-219A9.252,9.252,0,0,1,9.252,0Z" transform="translate(253.431 0) rotate(90)" fill="#ff405f"/><rect width="219.481" height="44.798" rx="4.484" transform="translate(24.939 9.01)" fill="#fff"/><text transform="translate(42.355 37.741)" fill="#ff405f" font-size="21" font-family="Montserrat-Bold, Montserrat" font-weight="700"><tspan x="0" y="0">VENDA ONLINE</tspan></text><path d="M505.929,203.568H472.95L470.2,237.693h38.476Z" transform="translate(-354.772 -140.75)" fill="#e3effe"/></g><g transform="translate(185.346 258.208)"><circle cx="4.077" cy="4.077" r="4.077" transform="translate(24.874 58.869)" fill="#1d1f45"/><circle cx="4.077" cy="4.077" r="4.077" transform="translate(78.561 58.869)" fill="#1d1f45"/><path d="M445.833,371.537a1.656,1.656,0,0,1-1.658-1.658V335.434a25.185,25.185,0,1,0-50.371,0v34.445a1.658,1.658,0,1,1-3.316,0V335.434a28.5,28.5,0,1,1,57,0v34.445A1.658,1.658,0,0,1,445.833,371.537Z" transform="translate(-363.197 -306.932)" fill="#1d1f45"/><path d="M0,0H88.166a0,0,0,0,1,0,0V93.817a2.641,2.641,0,0,1-2.641,2.641H2.641A2.641,2.641,0,0,1,0,93.816V0A0,0,0,0,1,0,0Z" transform="translate(0 45.05)" fill="#4eb6fb"/><circle cx="4.077" cy="4.077" r="4.077" transform="translate(12.437 58.869)" fill="#1d1f45"/><circle cx="4.077" cy="4.077" r="4.077" transform="translate(66.124 58.869)" fill="#1d1f45"/><path d="M439.255,371.537a1.656,1.656,0,0,1-1.658-1.658V335.434a25.185,25.185,0,1,0-50.371,0v34.445a1.659,1.659,0,0,1-3.318,0V335.434a28.5,28.5,0,0,1,57,0v34.445A1.656,1.656,0,0,1,439.255,371.537Z" transform="translate(-369.055 -306.932)" fill="#2f3170"/><path d="M425.043,330.764V422.23a4.992,4.992,0,0,1-4.992,4.992h12.438a4.994,4.994,0,0,0,4.992-4.992V330.764Z" transform="translate(-336.878 -285.714)" fill="#4ea5fb"/></g><g transform="translate(108.283 279.198)"><circle cx="3.472" cy="3.472" r="3.472" transform="translate(21.185 50.137)" fill="#1d1f45"/><circle cx="3.472" cy="3.472" r="3.472" transform="translate(66.908 50.137)" fill="#1d1f45"/><path d="M394.716,373.059a1.413,1.413,0,0,1-1.412-1.414V342.309a21.449,21.449,0,0,0-42.9,0v29.336a1.413,1.413,0,1,1-2.826,0V342.309a24.274,24.274,0,0,1,48.549,0v29.336A1.413,1.413,0,0,1,394.716,373.059Z" transform="translate(-324.336 -318.036)" fill="#1d1f45"/><path d="M0,0H75.088a0,0,0,0,1,0,0V79.9a2.249,2.249,0,0,1-2.249,2.249H2.249A2.249,2.249,0,0,1,0,79.9V0A0,0,0,0,1,0,0Z" transform="translate(0 38.368)" fill="#ff4a71"/><circle cx="3.472" cy="3.472" r="3.472" transform="translate(10.592 50.137)" fill="#1d1f45"/><circle cx="3.472" cy="3.472" r="3.472" transform="translate(56.316 50.137)" fill="#1d1f45"/><path d="M389.111,373.059a1.414,1.414,0,0,1-1.412-1.414V342.309a21.449,21.449,0,1,0-42.9,0v29.336a1.412,1.412,0,1,1-2.824,0V342.309a24.274,24.274,0,0,1,48.549,0v29.336A1.414,1.414,0,0,1,389.111,373.059Z" transform="translate(-329.325 -318.036)" fill="#2f3170"/><path d="M377.008,338.333v77.9a4.252,4.252,0,0,1-4.251,4.251h10.591a4.25,4.25,0,0,0,4.251-4.251v-77.9Z" transform="translate(-301.92 -299.966)" fill="#ff2e50"/></g><g transform="translate(448.171 307.703)"><rect width="86.461" height="17.548" transform="translate(0 28.46)" fill="#4ea5fb"/><rect width="76.12" height="46.004" transform="translate(5.171 46.008)" fill="#4eb6fb"/><rect width="11.879" height="46.004" transform="translate(37.291 46.008)" fill="#f7ab1d"/><rect width="11.879" height="17.548" transform="translate(37.291 28.46)" fill="#f7941d"/><path d="M586.816,341.974a11.8,11.8,0,0,0-11.13-8.85,6.158,6.158,0,0,0-.616,0c-13.536.794-19.154,13.364-21.317,20.844-2.163-7.48-7.781-20.05-21.319-20.844a6.114,6.114,0,0,0-.615,0,11.8,11.8,0,0,0-11.13,8.85,11.957,11.957,0,0,0,5.075,13.489c5.34,3.437,12.495,5.493,21.4,6.113h13.179c8.9-.62,16.058-2.677,21.4-6.113A11.957,11.957,0,0,0,586.816,341.974ZM547.3,357.788c-8.128-.573-14.68-2.427-19.478-5.516a8.256,8.256,0,0,1-3.471-9.287,8.093,8.093,0,0,1,7.9-6.075c12.79.752,17.3,15.3,18.563,20.875Zm32.392-5.516c-4.8,3.089-11.349,4.943-19.48,5.516l-3.508,0c1.265-5.578,5.773-20.122,18.563-20.875a8.093,8.093,0,0,1,7.9,6.075A8.256,8.256,0,0,1,579.688,352.272Z" transform="translate(-510.522 -333.116)" fill="#f7ab1d"/></g><g transform="translate(519.627 247.117)"><rect width="105.509" height="21.414" transform="translate(0 34.731)" fill="#ff2e50"/><rect width="92.889" height="96.454" transform="translate(6.31 56.144)" fill="#ff4a71"/><rect width="14.496" height="96.454" transform="translate(45.507 56.144)" fill="#f7ab1d"/><rect width="14.496" height="21.414" transform="translate(45.507 34.731)" fill="#f7941d"/><path d="M640.419,311.874a14.4,14.4,0,0,0-13.582-10.8,6.678,6.678,0,0,0-.75,0c-16.521.966-23.375,16.308-26.014,25.436-2.639-9.128-9.5-24.47-26.014-25.436a6.68,6.68,0,0,0-.75,0,14.4,14.4,0,0,0-13.584,10.8,14.591,14.591,0,0,0,6.195,16.461c6.516,4.193,15.247,6.7,26.112,7.461h16.083c10.866-.758,19.6-3.268,26.111-7.461A14.588,14.588,0,0,0,640.419,311.874Zm-48.225,19.3c-9.92-.7-17.914-2.962-23.771-6.731a10.073,10.073,0,0,1-4.236-11.332,9.874,9.874,0,0,1,9.635-7.412c15.608.915,21.111,18.663,22.654,25.47Zm39.526-6.731c-5.854,3.769-13.848,6.032-23.769,6.731l-4.281-.006c1.541-6.807,7.043-24.555,22.651-25.47a9.872,9.872,0,0,1,9.635,7.412A10.073,10.073,0,0,1,631.72,324.441Z" transform="translate(-547.318 -301.065)" fill="#f7ab1d"/></g><path d="M400.339,331.052V247.765L356.753,268.91V352.2Z" transform="translate(-207.886 -101.401)" fill="#e3effe"/><path d="M392.291,253.434a.431.431,0,0,0-.433.431v6.7l-9.924,4.631v-6.873a.432.432,0,1,0-.864,0V265.6l-9.926,4.633v-7.452a.431.431,0,1,0-.862,0v7.852l-9.926,4.633v-8.026a.432.432,0,0,0-.864,0V338.59a.432.432,0,0,0,.864,0v-5.1l9.926-4.633v5.278a.431.431,0,1,0,.862,0v-5.68l9.926-4.631v5.852a.432.432,0,0,0,.864,0v-6.255l9.924-4.633v6.427a.432.432,0,0,0,.864,0V253.865A.431.431,0,0,0,392.291,253.434Zm-.433,41.492-9.924,4.631v-10.5l9.924-4.631Zm-31.5,4.2,9.926-4.631V305l-9.926,4.631Zm10.788-5.036,9.926-4.631v10.5l-9.926,4.631Zm20.714-10.618-9.924,4.631V277.6l9.924-4.631Zm-10.788,5.034-9.926,4.633v-10.5l9.926-4.633Zm-10.788,5.036-9.926,4.631v-10.5l9.926-4.631Zm-9.926,17.037,9.926-4.633v10.5l-9.926,4.631Zm10.788-5.036,9.926-4.631v10.5l-9.926,4.631Zm10.79-5.034,9.924-4.633v10.5l-9.924,4.633Zm9.924-38.991v10.5l-9.924,4.633v-10.5Zm-10.788,5.036v10.5l-9.926,4.631v-10.5Zm-10.788,5.034v10.5l-9.926,4.631v-10.5Zm-9.926,60.947v-10.5l9.926-4.631v10.5Zm10.788-5.034V317l9.926-4.633v10.5Zm10.79-5.036v-10.5l9.924-4.631v10.5Z" transform="translate(-205.447 -96.354)" fill="#c9e1fe"/><path d="M379.81,331.052V247.765L423.4,268.91V352.2Z" transform="translate(-187.358 -101.401)" fill="#d6d8fb"/><path d="M382.55,253.865v71.348a.431.431,0,0,0,.862,0v-6.427l9.926,4.633v6.255a.432.432,0,0,0,.864,0v-5.852l9.924,4.631v5.68a.432.432,0,1,0,.864,0v-5.278l9.926,4.633v5.1a.431.431,0,0,0,.862,0V267.243a.431.431,0,1,0-.862,0v8.026l-9.926-4.633v-7.852a.432.432,0,0,0-.864,0v7.452L394.2,265.6v-7.276a.432.432,0,1,0-.864,0V265.2l-9.926-4.631v-6.7a.431.431,0,0,0-.862,0Zm.862,30.561,9.926,4.631v10.5l-9.926-4.631Zm31.5,25.2L404.99,305V294.5l9.926,4.631Zm-10.79-5.036L394.2,299.96v-10.5l9.924,4.631Zm-20.714-31.619,9.926,4.631v10.5l-9.926-4.631Zm10.79,5.034,9.924,4.633v10.5l-9.924-4.633Zm10.788,5.036,9.926,4.631v10.5l-9.926-4.631Zm9.926,38.041-9.926-4.631v-10.5l9.926,4.633Zm-10.79-5.034-9.924-4.631v-10.5l9.924,4.631Zm-10.788-5.034-9.926-4.633v-10.5l9.926,4.633Zm0-44.863v10.5l-9.926-4.633v-10.5Zm10.788,5.034v10.5l-9.924-4.631v-10.5Zm10.79,5.034v10.5l-9.926-4.631v-10.5ZM404.99,327.9V317.4l9.926,4.631v10.5ZM394.2,322.869v-10.5L404.126,317v10.5Zm-10.79-5.034v-10.5l9.926,4.631v10.5Z" transform="translate(-184.919 -96.354)" fill="#bcc0fb"/><path d="M446.454,331.052V247.765L402.868,268.91V352.2Z" transform="translate(-166.83 -101.401)" fill="#e3effe"/><path d="M438.406,253.434a.431.431,0,0,0-.433.431v6.7l-9.924,4.631v-6.873a.432.432,0,1,0-.864,0V265.6l-9.926,4.633v-7.452a.431.431,0,1,0-.862,0v7.852l-9.926,4.633v-8.026a.432.432,0,0,0-.864,0V338.59a.432.432,0,0,0,.864,0v-5.1l9.926-4.633v5.278a.431.431,0,1,0,.862,0v-5.68l9.926-4.631v5.852a.432.432,0,0,0,.864,0v-6.255l9.924-4.633v6.427a.432.432,0,0,0,.864,0V253.865A.431.431,0,0,0,438.406,253.434Zm-.433,41.492-9.924,4.631v-10.5l9.924-4.631Zm-31.5,4.2L416.4,294.5V305l-9.926,4.631Zm10.788-5.036,9.926-4.631v10.5l-9.926,4.631Zm20.714-10.618-9.924,4.631V277.6l9.924-4.631Zm-10.788,5.034-9.926,4.633v-10.5l9.926-4.633ZM416.4,293.543l-9.926,4.631v-10.5l9.926-4.631Zm-9.926,17.037,9.926-4.633v10.5l-9.926,4.631Zm10.788-5.036,9.926-4.631v10.5l-9.926,4.631Zm10.79-5.034,9.924-4.633v10.5l-9.924,4.633Zm9.924-38.991v10.5l-9.924,4.633v-10.5Zm-10.788,5.036v10.5l-9.926,4.631v-10.5ZM416.4,271.589v10.5l-9.926,4.631v-10.5Zm-9.926,60.947v-10.5L416.4,317.4v10.5Zm10.788-5.034V317l9.926-4.633v10.5Zm10.79-5.036v-10.5l9.924-4.631v10.5Z" transform="translate(-164.391 -96.354)" fill="#c9e1fe"/><g transform="translate(166.449 98.324)"><path d="M438.854,251.3a36.79,36.79,0,0,0-71.89,0c-4.019,18.455,5.966,40.929,16.538,55.59a87.917,87.917,0,0,0,13.206,14.656,9.341,9.341,0,0,0,12.4,0,87.845,87.845,0,0,0,13.208-14.656C432.89,292.23,442.872,269.756,438.854,251.3Z" transform="translate(-366.054 -222.351)" fill="#ff405f"/><circle cx="23.73" cy="23.73" r="23.73" transform="translate(13.159 13.091)" fill="#d6d8fb"/><circle cx="18.921" cy="18.921" r="18.921" transform="translate(17.968 17.899)" fill="#e3effe"/></g><g transform="translate(455.143 148.288)"><circle cx="38.498" cy="38.498" r="38.498" transform="translate(0 54.444) rotate(-45)" fill="#4eb6fb"/><text transform="translate(29.282 74.464)" fill="#fff" font-size="54" font-family="Montserrat-ExtraBold, Montserrat" font-weight="800" opacity="0.68"><tspan x="0" y="0">%</tspan></text></g><g transform="translate(533.884 100.701)"><circle cx="38.498" cy="38.498" r="38.498" fill="#ffc100"/><text transform="translate(20.348 53.522)" fill="#ffe491" font-size="53" font-family="Montserrat-ExtraBold, Montserrat" font-weight="800"><tspan x="0" y="0">$</tspan></text></g><path d="M643.633,262.394c-27.056,0-48.991,13.24-48.991,29.574a19.943,19.943,0,0,0,3.877,11.544l-19.366,15.079a3.3,3.3,0,0,0,2.8,5.805l33.736-8.155a72.767,72.767,0,0,0,27.944,5.3c27.058,0,48.993-13.24,48.993-29.574S670.691,262.394,643.633,262.394Z" transform="translate(-11.028 -88.377)" fill="#ff2e50"/><text transform="translate(609.004 201.568)" fill="#fff" font-size="15" font-family="Montserrat-ExtraBold, Montserrat" font-weight="800" opacity="0.68"><tspan x="0" y="0">PROM</tspan><tspan x="0" y="17">OÇÃO</tspan></text><path d="M622.6,243.679c-.93,11.6-12.622,12.191-12.622,12.191s11.691.594,12.622,12.191c.932-11.6,12.623-12.191,12.623-12.191S623.532,255.278,622.6,243.679Z" transform="translate(17.561 -105.039)" fill="#f9337f"/><path d="M346.5,247.494c-.93,11.6-12.622,12.191-12.622,12.191s11.692.592,12.622,12.189c.932-11.6,12.623-12.189,12.623-12.189S347.436,259.091,346.5,247.494Z" transform="translate(-228.248 -101.642)" fill="#f9337f"/><path d="M610.014,216.582c-.728,9.062-9.862,9.523-9.862,9.523s9.134.463,9.862,9.523c.728-9.06,9.86-9.523,9.86-9.523S610.742,225.644,610.014,216.582Z" transform="translate(8.813 -129.163)" fill="#fbb040"/><path d="M364.467,216.582c-.728,9.062-9.862,9.523-9.862,9.523s9.134.463,9.862,9.523c.728-9.06,9.86-9.523,9.86-9.523S365.195,225.644,364.467,216.582Z" transform="translate(-209.798 -129.163)" fill="#fbb040"/><path d="M594.495,196.76c-.728,9.06-9.862,9.523-9.862,9.523s9.134.463,9.862,9.523c.728-9.06,9.86-9.523,9.86-9.523S595.222,205.82,594.495,196.76Z" transform="translate(-5.004 -146.811)" fill="#f9337f"/><path d="M313.554,266c-.726,9.06-9.86,9.521-9.86,9.521s9.134.463,9.86,9.525c.728-9.062,9.862-9.525,9.862-9.525S314.282,275.057,313.554,266Z" transform="translate(-255.125 -85.169)" fill="#fbb040"/><path d="M565.423,188.254c-1.524,18.969-20.646,19.937-20.646,19.937s19.122.97,20.646,19.939c1.522-18.969,20.644-19.939,20.644-19.939S566.945,207.223,565.423,188.254Z" transform="translate(-40.487 -154.384)" fill="#fbb040"/><path d="M401.062,181.174c-1.524,18.969-20.644,19.939-20.644,19.939s19.12.97,20.644,19.937c1.524-18.967,20.646-19.937,20.646-19.937S402.586,200.143,401.062,181.174Z" transform="translate(-186.817 -160.687)" fill="#f9337f"/></g><path d="M962.8,401.088H309.148a9.648,9.648,0,0,1-9.648-9.648h0a9.648,9.648,0,0,1,9.648-9.648H962.8a9.648,9.648,0,0,1,9.648,9.648h0A9.648,9.648,0,0,1,962.8,401.088Z" transform="translate(-228.863 17.924)" fill="url(#i)" style="mix-blend-mode:multiply;isolation:isolate"/></g></g></svg>