<svg id="Group_125" data-name="Group 125" xmlns="http://www.w3.org/2000/svg" viewBox="0 0 204.4 74"><defs><style>.cls-1,.cls-2{fill:#0090cf;}.cls-1{opacity:0.08;}.cls-1,.cls-2,.cls-3{isolation:isolate;}.cls-2{opacity:0.12;}.cls-4{fill:#404040;}.cls-5{fill:#ff405f;}</style></defs><title>logo-2</title><circle id="Ellipse_13" data-name="Ellipse 13" class="cls-1" cx="140.1" cy="43" r="31"/><path id="Path_58" data-name="Path 58" class="cls-2" d="M167.1,0a19,19,0,0,1,3.5,37.7A31.14,31.14,0,0,0,164,23.3a31.7,31.7,0,0,0-15.1-10A18.87,18.87,0,0,1,167.1,0Z" transform="translate(0 0)"/><g class="cls-3"><path class="cls-4" d="M2.7,43.7A8.49,8.49,0,0,1,0,42.4l1.1-2.5a8.36,8.36,0,0,0,5.1,1.6A4.62,4.62,0,0,0,8.5,41a1.56,1.56,0,0,0,.8-1.3,1.31,1.31,0,0,0-.7-1.2,12.91,12.91,0,0,0-2.7-.8,14.54,14.54,0,0,1-3.3-1A4.53,4.53,0,0,1,.8,35.2,3.8,3.8,0,0,1,.2,33,4.38,4.38,0,0,1,1,30.5a5.43,5.43,0,0,1,2.2-1.7,8.11,8.11,0,0,1,3.3-.6,11.27,11.27,0,0,1,3.2.5A8.42,8.42,0,0,1,12.2,30l-1.1,2.5a7.16,7.16,0,0,0-4.6-1.6,4.06,4.06,0,0,0-2.1.5,1.72,1.72,0,0,0-.8,1.4,1.4,1.4,0,0,0,.3.9,2.89,2.89,0,0,0,1,.6,7.21,7.21,0,0,0,2,.5,9.77,9.77,0,0,1,4.3,1.7,3.47,3.47,0,0,1,1.3,2.9,4.27,4.27,0,0,1-1.7,3.5A7.42,7.42,0,0,1,6,44.2,13.22,13.22,0,0,1,2.7,43.7Z" transform="translate(0 0)"/><path class="cls-4" d="M18.2,43.2a7.27,7.27,0,0,1-2.7-2.8,9.42,9.42,0,0,1-.9-4.3,9.28,9.28,0,0,1,.9-4.2,6.62,6.62,0,0,1,2.7-2.8,7.8,7.8,0,0,1,4.1-1,7.21,7.21,0,0,1,4,1,7,7,0,0,1,2.6,2.8,9.28,9.28,0,0,1,.9,4.2,9.72,9.72,0,0,1-.9,4.3,6.43,6.43,0,0,1-2.6,2.8,7.44,7.44,0,0,1-4,1A8,8,0,0,1,18.2,43.2Zm7.2-3.1a6.56,6.56,0,0,0,1.1-4,6.56,6.56,0,0,0-1.1-4,3.81,3.81,0,0,0-3.1-1.4,3.81,3.81,0,0,0-3.1,1.4,6.36,6.36,0,0,0-1.1,4,6.56,6.56,0,0,0,1.1,4,3.81,3.81,0,0,0,3.1,1.4A3.54,3.54,0,0,0,25.4,40.1Z" transform="translate(0 0)"/><path class="cls-4" d="M32.6,44V28.3H36V41.2h7V44Z" transform="translate(0 0)"/><path class="cls-4" d="M46.1,42.5a6.86,6.86,0,0,1-1.7-5V28.3h3.4v9.3a3.93,3.93,0,0,0,.9,2.8,3.63,3.63,0,0,0,5,0,4.1,4.1,0,0,0,.9-2.8V28.3H58v9.2a7,7,0,0,1-1.7,5c-1.1,1.2-2.8,1.7-5,1.7C48.9,44.2,47.2,43.6,46.1,42.5Z" transform="translate(0 0)"/><path class="cls-4" d="M71.4,43.6a8.57,8.57,0,0,1-2.7.5l-.1.7h.3a2.12,2.12,0,0,1,1.4.4,1.27,1.27,0,0,1,.5,1.1,1.6,1.6,0,0,1-.8,1.4,4.47,4.47,0,0,1-2.2.5,3.4,3.4,0,0,1-1-.1c-.4-.1-.7-.2-1-.3l.3-1.3a6.75,6.75,0,0,0,1.7.3c.7,0,1-.2,1-.6,0-.1-.1-.2-.2-.3a1.27,1.27,0,0,1-.6.1,3.09,3.09,0,0,0-.8.2l-.4-.5.2-1.6a8.21,8.21,0,0,1-3.5-1.3A7.1,7.1,0,0,1,61.2,40a8.27,8.27,0,0,1-.8-3.9,9.28,9.28,0,0,1,.9-4.2A6.62,6.62,0,0,1,64,29.1a8,8,0,0,1,4.1-1,10.47,10.47,0,0,1,3,.5,7.28,7.28,0,0,1,2.3,1.3l-1.1,2.5a11.25,11.25,0,0,0-2.1-1.2,7.79,7.79,0,0,0-2.1-.4,3.82,3.82,0,0,0-3.2,1.3A6.24,6.24,0,0,0,63.8,36a6.24,6.24,0,0,0,1.1,3.9,3.88,3.88,0,0,0,3.2,1.4,5.22,5.22,0,0,0,2.1-.4,5.66,5.66,0,0,0,2.1-1.2l1.1,2.5A3.34,3.34,0,0,1,71.4,43.6Z" transform="translate(0 0)"/><path class="cls-4" d="M78.7,43.2A7.27,7.27,0,0,1,76,40.4a9.42,9.42,0,0,1-.9-4.3,9.28,9.28,0,0,1,.9-4.2,6.62,6.62,0,0,1,2.7-2.8,7.8,7.8,0,0,1,4.1-1,7.21,7.21,0,0,1,4,1,7,7,0,0,1,2.6,2.8,9.28,9.28,0,0,1,.9,4.2,9.72,9.72,0,0,1-.9,4.3,6.43,6.43,0,0,1-2.6,2.8,7.44,7.44,0,0,1-4,1A8,8,0,0,1,78.7,43.2Zm7.2-3.1a6.56,6.56,0,0,0,1.1-4,6.56,6.56,0,0,0-1.1-4,4.13,4.13,0,0,0-6.2,0,6.36,6.36,0,0,0-1.1,4,6.56,6.56,0,0,0,1.1,4,3.81,3.81,0,0,0,3.1,1.4A3.54,3.54,0,0,0,85.9,40.1ZM79.6,24.4a2.14,2.14,0,0,1,1.7-.8,1.88,1.88,0,0,1,.8.2,9,9,0,0,1,.9.5c.3.2.6.3.7.4a1.07,1.07,0,0,0,1.2-.2,1.14,1.14,0,0,0,.3-.8h1.4a3.29,3.29,0,0,1-.7,2.4,2.14,2.14,0,0,1-1.7.8,1.88,1.88,0,0,1-.8-.2,4.05,4.05,0,0,1-.9-.5c-.3-.2-.6-.3-.7-.4a1.07,1.07,0,0,0-1.2.2,1.14,1.14,0,0,0-.3.8H78.9A3.61,3.61,0,0,1,79.6,24.4Z" transform="translate(0 0)"/><path class="cls-4" d="M93.1,44V28.3h10.8V31H96.4v3.7h7v2.7h-7v4h7.5V44Z" transform="translate(0 0)"/><path class="cls-4" d="M108.1,43.7a8.49,8.49,0,0,1-2.7-1.3l1.1-2.5a8.36,8.36,0,0,0,5.1,1.6,4.62,4.62,0,0,0,2.3-.5,1.56,1.56,0,0,0,.8-1.3,1.31,1.31,0,0,0-.7-1.2,8,8,0,0,0-2.6-.8,14.54,14.54,0,0,1-3.3-1,4.53,4.53,0,0,1-1.8-1.5,3.8,3.8,0,0,1-.6-2.2,4.38,4.38,0,0,1,.8-2.5,5.43,5.43,0,0,1,2.2-1.7,8.11,8.11,0,0,1,3.3-.6,11.27,11.27,0,0,1,3.2.5,8.42,8.42,0,0,1,2.5,1.3l-1.1,2.5a7.16,7.16,0,0,0-4.6-1.6,4.06,4.06,0,0,0-2.1.5,1.72,1.72,0,0,0-.8,1.4,1.4,1.4,0,0,0,.3.9,2.89,2.89,0,0,0,1,.6,7.21,7.21,0,0,0,2,.5,9.77,9.77,0,0,1,4.3,1.7,3.77,3.77,0,0,1,1.3,2.9,4.27,4.27,0,0,1-1.7,3.5,7.42,7.42,0,0,1-4.8,1.3A13.32,13.32,0,0,1,108.1,43.7Z" transform="translate(0 0)"/></g><g class="cls-3"><path class="cls-5" d="M72,53.3h3.2V69H72.6L64.8,59V69H61.6V53.3h2.5l7.8,10v-10Z" transform="translate(0 0)"/><path class="cls-5" d="M80,67.5a6.86,6.86,0,0,1-1.7-5V53.3h3.4v9.3a3.93,3.93,0,0,0,.9,2.8,3.63,3.63,0,0,0,5,0,4.1,4.1,0,0,0,.9-2.8V53.3h3.4v9.2a7,7,0,0,1-1.7,5c-1.1,1.2-2.8,1.7-5,1.7A7.22,7.22,0,0,1,80,67.5Z" transform="translate(0 0)"/><path class="cls-5" d="M106.3,53.3h3.5l-7,15.7H100L93,53.3h3.6l4.9,11.4Z" transform="translate(0 0)"/><path class="cls-5" d="M111,69V53.3h10.8V56h-7.5v3.7h7v2.7h-7v4h7.5V69Z" transform="translate(0 0)"/><path class="cls-5" d="M137,53.3h2.7V69h-3V60.4L133,69h-2.2l-3.6-8.4V69h-3V53.3h2.7L132,64.8Z" transform="translate(0 0)"/><path class="cls-5" d="M144.9,68.7a8.49,8.49,0,0,1-2.7-1.3l1.1-2.5a8.36,8.36,0,0,0,5.1,1.6,4.62,4.62,0,0,0,2.3-.5,1.56,1.56,0,0,0,.8-1.3,1.31,1.31,0,0,0-.7-1.2,8,8,0,0,0-2.6-.8,14.54,14.54,0,0,1-3.3-1,4.53,4.53,0,0,1-1.8-1.5,3.8,3.8,0,0,1-.6-2.2,4.38,4.38,0,0,1,.8-2.5,5.43,5.43,0,0,1,2.2-1.7,8.11,8.11,0,0,1,3.3-.6,11.27,11.27,0,0,1,3.2.5,8.42,8.42,0,0,1,2.5,1.3l-1.1,2.5a7.16,7.16,0,0,0-4.6-1.6,4.06,4.06,0,0,0-2.1.5,1.72,1.72,0,0,0-.8,1.4,1.4,1.4,0,0,0,.3.9,2.89,2.89,0,0,0,1,.6,7.21,7.21,0,0,0,2,.5,9.77,9.77,0,0,1,4.3,1.7,3.47,3.47,0,0,1,1.3,2.9,4.27,4.27,0,0,1-1.7,3.5,7.42,7.42,0,0,1-4.8,1.3A13.32,13.32,0,0,1,144.9,68.7Z" transform="translate(0 0)"/><path class="cls-5" d="M167.9,53.3h3.4V69h-3.4V62.4h-7.3V69h-3.4V53.3h3.4v6.3h7.3Z" transform="translate(0 0)"/><path class="cls-5" d="M177.6,68.2a7.27,7.27,0,0,1-2.7-2.8,9.42,9.42,0,0,1-.9-4.3,9.28,9.28,0,0,1,.9-4.2,6.62,6.62,0,0,1,2.7-2.8,7.8,7.8,0,0,1,4.1-1,7.21,7.21,0,0,1,4,1,7,7,0,0,1,2.6,2.8,9.28,9.28,0,0,1,.9,4.2,9.72,9.72,0,0,1-.9,4.3,6.43,6.43,0,0,1-2.6,2.8,7.44,7.44,0,0,1-4,1A7.8,7.8,0,0,1,177.6,68.2Zm7.1-3.1a6.56,6.56,0,0,0,1.1-4,6.56,6.56,0,0,0-1.1-4,4.13,4.13,0,0,0-6.2,0,6.36,6.36,0,0,0-1.1,4,6.56,6.56,0,0,0,1.1,4,3.81,3.81,0,0,0,3.1,1.4A3.54,3.54,0,0,0,184.7,65.1Z" transform="translate(0 0)"/><path class="cls-5" d="M191.9,53.3H199a5.52,5.52,0,0,1,4,1.3,4.12,4.12,0,0,1,1.4,3.4,4.19,4.19,0,0,1-1.5,3.4,6.19,6.19,0,0,1-4,1.3h-3.7V69h-3.4V53.3Zm6.7,6.7c1.8,0,2.7-.7,2.7-2s-.9-2-2.7-2h-3.2v4Z" transform="translate(0 0)"/></g></svg>