<svg xmlns="http://www.w3.org/2000/svg" xmlns:xlink="http://www.w3.org/1999/xlink" width="877.069" height="667.393" viewBox="0 0 877.069 667.393"><defs><linearGradient id="a" x1="0.398" y1="0.39" x2="1.416" y2="0.912" gradientUnits="objectBoundingBox"><stop offset="0"/><stop offset="1" stop-opacity="0"/></linearGradient><linearGradient id="b" x1="0.043" y1="-0.217" x2="1.076" y2="1.885" xlink:href="#a"/><linearGradient id="c" x1="0" y1="0.5" x2="1" y2="0.5" xlink:href="#a"/><linearGradient id="d" x1="0.566" y1="-0.101" x2="0.407" y2="1.222" xlink:href="#a"/><linearGradient id="e" x1="0.355" y1="0.309" x2="0.811" y2="1.282" xlink:href="#a"/><linearGradient id="f" x1="0.5" y1="0.957" x2="0.5" y2="-0.085" xlink:href="#a"/><linearGradient id="h" x1="0.5" y1="0.95" x2="0.5" y2="-0.084" xlink:href="#a"/><linearGradient id="i" x1="0.5" y1="-0.288" x2="0.5" y2="1.913" xlink:href="#a"/><linearGradient id="k" x1="0.963" y1="0.149" x2="-0.187" y2="0.954" xlink:href="#a"/><linearGradient id="l" x1="0.5" y1="-0.212" x2="0.5" y2="1.418" xlink:href="#a"/><linearGradient id="m" x1="0.629" y1="0.416" x2="-0.145" y2="1.909" xlink:href="#a"/><linearGradient id="n" x1="0.477" y1="-0.076" x2="0.839" y2="1.132" xlink:href="#a"/><linearGradient id="o" x1="0.617" y1="0.387" x2="-0.002" y2="1.907" xlink:href="#a"/><linearGradient id="p" x1="0.505" y1="0.039" x2="0.493" y2="1.085" xlink:href="#a"/></defs><g transform="translate(-21.081)"><rect width="666.568" height="498.908" rx="20.373" transform="translate(21.081 167.917)" fill="#0090cf" opacity="0.23"/><path d="M21.371,0H568.748a21.371,21.371,0,0,1,21.371,21.371V646.022a21.371,21.371,0,0,1-21.371,21.371H0a0,0,0,0,1,0,0V21.371A21.371,21.371,0,0,1,21.371,0Z" transform="translate(308.031)" fill="#cfe4ed"/><g transform="translate(0 74.803)"><circle cx="62.596" cy="62.596" r="62.596" transform="translate(97.179 223.832) rotate(-81.144)" fill="#ffdb82"/><circle cx="62.596" cy="62.596" r="62.596" transform="translate(697.078 223.295) rotate(-80.716)" fill="#ffdb82"/><g transform="translate(173.746 159.689)"><path d="M6.567,0h441a6.567,6.567,0,0,1,6.567,6.567V301.76a0,0,0,0,1,0,0H0a0,0,0,0,1,0,0V6.567A6.567,6.567,0,0,1,6.567,0Z" transform="translate(28.247)" fill="#595959"/><rect width="276.818" height="429.191" rx="2.673" transform="translate(469.908 12.47) rotate(90)" fill="#fff"/><g transform="translate(55.12 58.271)"><path d="M572.294,268.581h-150A17.187,17.187,0,0,1,405.1,251.4h0a17.189,17.189,0,0,1,17.188-17.188h150A17.187,17.187,0,0,1,589.479,251.4h0A17.185,17.185,0,0,1,572.294,268.581Z" transform="translate(-405.104 -234.208)" fill="#c2c2c2"/></g><path d="M821.722,217.42h-414.6a7.294,7.294,0,0,0-7.3,7.292v11.516H829.015V224.713A7.292,7.292,0,0,0,821.722,217.42Z" transform="translate(-359.108 -204.95)" fill="#6582db"/><g transform="translate(49.549 17.891)"><path d="M411.028,223.39a3.983,3.983,0,1,1-3.983-3.983A3.984,3.984,0,0,1,411.028,223.39Z" transform="translate(-403.062 -219.407)" fill="#3c57ab"/><path d="M417.821,223.39a3.983,3.983,0,1,1-3.983-3.983A3.984,3.984,0,0,1,417.821,223.39Z" transform="translate(-391.322 -219.407)" fill="#3c57ab"/><path d="M424.614,223.39a3.983,3.983,0,1,1-3.983-3.983A3.984,3.984,0,0,1,424.614,223.39Z" transform="translate(-379.583 -219.407)" fill="#3c57ab"/></g><g transform="translate(55.12 116.006)"><path d="M538.5,261.487H408.165a3.059,3.059,0,0,1-3.061-3.058h0a3.059,3.059,0,0,1,3.061-3.058H538.5a3.059,3.059,0,0,1,3.058,3.058h0A3.059,3.059,0,0,1,538.5,261.487Z" transform="translate(-405.104 -255.37)" fill="#535373"/><path d="M538.5,268.011H408.165a3.059,3.059,0,0,1-3.061-3.058h0a3.062,3.062,0,0,1,3.061-3.061H538.5a3.061,3.061,0,0,1,3.058,3.061h0A3.059,3.059,0,0,1,538.5,268.011Z" transform="translate(-405.104 -244.099)" fill="#535373"/><path d="M538.5,274.533H408.165a3.059,3.059,0,0,1-3.061-3.058h0a3.057,3.057,0,0,1,3.061-3.058H538.5a3.057,3.057,0,0,1,3.058,3.058h0A3.059,3.059,0,0,1,538.5,274.533Z" transform="translate(-405.104 -232.824)" fill="#535373"/><path d="M458.768,281.056h-50.6A3.059,3.059,0,0,1,405.1,278h0a3.059,3.059,0,0,1,3.061-3.058h50.6A3.059,3.059,0,0,1,461.829,278h0A3.059,3.059,0,0,1,458.768,281.056Z" transform="translate(-405.104 -221.551)" fill="#535373"/></g><path d="M0,0H510.625a0,0,0,0,1,0,0V17.513a5.233,5.233,0,0,1-5.233,5.233H5.233A5.233,5.233,0,0,1,0,17.513V0A0,0,0,0,1,0,0Z" transform="translate(0 301.76)" fill="#c2c2c2"/><g transform="translate(259.905 58.272)"><rect width="77.368" height="77.369" fill="#c2c2c2"/></g><g transform="translate(259.905 159.212)"><rect width="77.368" height="77.369" fill="#c2c2c2"/></g></g><rect width="26.478" height="301.76" transform="translate(462.631 461.448) rotate(180)" opacity="0.3"/><line x2="842.812" transform="translate(24 484.726)" fill="none" stroke="#333745" stroke-miterlimit="10" stroke-width="0.942"/><g transform="translate(53.069 121.904)"><path d="M374.636,338.354l5.937-17.428H352.666l-12,30.182h10.561l.878-2.663a2.715,2.715,0,0,1,5.156,1.705l-.316.958h43.2C401.408,342.9,374.636,338.354,374.636,338.354Z" transform="translate(-340.667 11.715)" fill="#594000"/><path d="M410.854,338.354l-.025-17.428H382.923l-6.035,30.182h10.558l.878-2.663a2.716,2.716,0,0,1,5.156,1.705l-.316.958h43.2C437.626,342.9,410.854,338.354,410.854,338.354Z" transform="translate(-278.07 11.715)" fill="#594000"/><path d="M459.737,254.02l15.848,78.428a165.352,165.352,0,0,1,3.178,38.487l-2.881,83.107h-37.45a68.231,68.231,0,0,0,4.13-21.719c0-11.112-2.488-24.284.758-35.358,4.294-14.648-.5-23.236,5.05-40.661,0,0-12.88-42.721-17.93-69.957l-16.309,71.995a55.315,55.315,0,0,1-1.863,6.419l-31.833,89.28h-39.4s8.146-8.468,9.344-19.7C352.4,415.4,361.35,409.978,364.271,400c3.675-12.55,7.885-31.473,15.66-42.178,0,0,11.772-60.566,12.817-69.324,1.173-9.865-2.464-26.709,8.048-37.5Z" transform="translate(-340.026 -109.151)" fill="#52586e"/><path d="M375.088,259.367l21.889,82.456-5.3,99.254" transform="translate(-281.181 -94.671)" fill="none" stroke="#fff" stroke-miterlimit="10" stroke-width="0.247"/><path d="M397,252.655l-17.426,103.42-34.095,95.086" transform="translate(-332.347 -106.272)" fill="none" stroke="#fff" stroke-miterlimit="10" stroke-width="0.247"/><path d="M378.637,257.612,373.808,274.9c5.05,27.236,17.93,69.957,17.93,69.957l.687-37.783C392.755,289.014,378.637,257.612,378.637,257.612Z" transform="translate(-283.392 -97.705)" opacity="0.3" fill="url(#a)"/><path d="M367.864,250.989c-6.96,7.148-7.713,16.942-7.77,25.612,15.365-4.051,18.877-18.385,19.673-25Z" transform="translate(-307.093 -109.151)" fill="#333745"/><path d="M428.216,270.133l-3.258-16.113-58.94-3.031a23.971,23.971,0,0,0-4.856,7.383Z" transform="translate(-305.247 -109.151)" opacity="0.3"/><path d="M401.315,223.65l15.791,4.633,67.471,1.3s10.089-3.648,20.442,5.484l-106.356.191Z" transform="translate(-240.438 -156.398)" fill="#ff927d"/><path d="M432.245,228.574l-15.139-.292-15.791-4.633-2.652,11.611,29.514-.052C429.571,232.934,430.954,230.681,432.245,228.574Z" transform="translate(-240.438 -156.398)" opacity="0.3" fill="url(#b)"/><path d="M395.371,220.614l37.271,10.134-5.59,23.93-39.428-5.3Z" transform="translate(-259.515 -161.645)" fill="#74783f"/><path d="M392.98,220.614l-3.692,13.709-.281,15.562,17.343-25.636Z" transform="translate(-257.125 -161.645)" opacity="0.3" fill="url(#c)"/><path d="M405.4,223.044l-6.583,27.6,9.041,1.215,6.182-26.465Z" transform="translate(-240.18 -157.446)" fill="#a2a658"/><path d="M383.366,220.614h59.017s-6.72,40.754-7.923,80.528a7.662,7.662,0,0,1-7.661,7.432H371.474c-9.873,0-13.655-7.047-9.2-16.156,6.632-13.559,3.838-16.407,5.023-22.841C370.044,254.678,383.366,233.854,383.366,220.614Z" transform="translate(-306.526 -161.645)" fill="#74783f"/><path d="M413.359,212.216s-2.922,11.235-2.022,15.84l-3.034-1.012s-1.656,6.657-2.218,8.79c-.843,3.2-4.733,4.927-9,1.67,0,0-2.709,8.25-4.057,12.8a20.64,20.64,0,0,1-16.626,0s4.78-12.943,5.928-17.875c0,0-4.245-23.577,4.071-27.847S413.359,212.216,413.359,212.216Z" transform="translate(-278.913 -190.957)" fill="#ff927d"/><path d="M384.786,212.153s-8.25-6.509-5.958,8.084,12.089,13.357,12.089,13.357h0c1.282-4.065,2.665-8.277,2.665-8.277a8.592,8.592,0,0,0,3.08,1.558C393.014,225.374,384.786,212.153,384.786,212.153Z" transform="translate(-275.412 -178.769)" opacity="0.3" fill="url(#d)"/><path d="M381.747,240.467c-13.75-27.206,5.162-33.9,5.162-33.9,13.666-17.962,40.465.4,36.806,10.285-4,10.823-28.553-.325-28.553-.325l-4.324,9.786s-.03-6.556-3.549-5.429c-3.931,1.255-4.335,8.28.417,11.5A34.452,34.452,0,0,1,381.747,240.467Z" transform="translate(-278.331 -199)" fill="#414657"/><path d="M549.446,262.279h-150a17.185,17.185,0,0,1-17.188-17.185h0a17.187,17.187,0,0,1,17.188-17.188h150a17.187,17.187,0,0,1,17.188,17.188h0A17.185,17.185,0,0,1,549.446,262.279Z" transform="translate(-268.787 -149.043)" fill="#3c57ab"/><path d="M369.915,247.128l5.148,10.618a14.808,14.808,0,0,0,14.746,8.28l64.9-6.245a34.409,34.409,0,0,0,7.372-1.541l17.133-5.6h-15.9a1.078,1.078,0,0,1-.611-1.97c2.876-1.951,6.7-4.717,6.043-5.23-.941-.739-8.755,3.563-15.837,6.482a9.953,9.953,0,0,1-3.795.753H395.323a6.294,6.294,0,0,1-5.915-4.139l-5.489-15.076Z" transform="translate(-290.12 -139.441)" fill="#ff927d"/><path d="M389.411,248.538l-5.492-15.076-14,13.666,5.148,10.618a15.081,15.081,0,0,0,.93,1.591c5.107-2.365,11.846-5.476,16.227-7.5A6.248,6.248,0,0,1,389.411,248.538Z" transform="translate(-290.12 -139.441)" opacity="0.3" fill="url(#e)"/><path d="M383.6,220.67l19.559,50.289H379.276s-10.04-19.035-13.447-25.143S358.4,219.069,383.6,220.67Z" transform="translate(-301.552 -161.701)" fill="#74783f"/><g transform="translate(87.228 72.94)" opacity="0.3"><path d="M384.493,256.447,372.64,225.968l.6-.233,11.854,30.478Z" transform="translate(-372.64 -225.735)"/></g><path d="M371.316,243.68h25.765l-3.039-7.088H367.567C369.739,240.693,371.316,243.68,371.316,243.68Z" transform="translate(-294.178 -134.032)" fill="#a2a658"/><g transform="translate(269.321 87.733)"><path d="M449.947,232.968a6.189,6.189,0,1,1-8.752,0A6.193,6.193,0,0,1,449.947,232.968Z" transform="translate(-439.384 -231.157)" fill="none" stroke="#fff" stroke-miterlimit="10" stroke-width="0.942"/><line x2="6.072" y2="6.072" transform="translate(10.562 10.562)" fill="none" stroke="#fff" stroke-miterlimit="10" stroke-width="0.942"/></g><g transform="translate(67.724 90.826)" opacity="0.3"><path d="M371.87,244.564l-6.38-11.972.567-.3,6.38,11.972Z" transform="translate(-365.491 -232.291)"/></g></g><g transform="translate(219.827 376.523)"><path d="M2.747,0H88.152A2.747,2.747,0,0,1,90.9,2.747V40.853a0,0,0,0,1,0,0H0a0,0,0,0,1,0,0V2.747A2.747,2.747,0,0,1,2.747,0Z" transform="translate(2.086)" fill="#3c57ab"/><path d="M1.1,0H74.783a1.1,1.1,0,0,1,1.1,1.1V33.931a0,0,0,0,1,0,0H0a0,0,0,0,1,0,0V1.1A1.1,1.1,0,0,1,1.1,0Z" transform="translate(9.595 6.922)" opacity="0.3"/><path d="M449.856,327.719h4.624V318.2h-4.624a3.56,3.56,0,0,1-2.518-6.078l3.268-3.271-6.73-6.731-3.268,3.268a3.562,3.562,0,0,1-6.081-2.518v-4.624h-9.519v4.624a3.562,3.562,0,0,1-6.081,2.518l-3.271-3.268-6.73,6.731,3.268,3.271a3.56,3.56,0,0,1-2.518,6.078h-4.622v9.521h4.622a3.56,3.56,0,0,1,2.518,6.078l-3.268,3.271,6.73,6.73,3.271-3.268a3.562,3.562,0,0,1,6.081,2.518v4.624h9.519v-4.624a3.562,3.562,0,0,1,6.081-2.518l3.268,3.268,6.73-6.73-3.268-3.271A3.56,3.56,0,0,1,449.856,327.719Zm-20.091,2.974a7.734,7.734,0,1,1,7.735-7.734A7.733,7.733,0,0,1,429.765,330.692Z" transform="translate(-396.152 -282.105)" fill="#ffb700"/><path d="M437.116,341.193l22.98-22.98a7.209,7.209,0,0,1,5.413-2.177,9.4,9.4,0,0,0,9.8-10.509.8.8,0,0,0-1.364-.464l-5.08,5.083a3.1,3.1,0,0,1-3,.8l-1.588-.426a3.1,3.1,0,0,1-2.191-2.193l-.426-1.588a3.1,3.1,0,0,1,.8-2.993l5.085-5.085a.8.8,0,0,0-.456-1.359,9.382,9.382,0,0,0-10.515,9.824,7.274,7.274,0,0,1-2.242,5.448l-22.862,22.862a7.276,7.276,0,0,1-5.446,2.24,9.385,9.385,0,0,0-9.827,10.515.8.8,0,0,0,1.361.456l5.083-5.085a3.1,3.1,0,0,1,3-.8l1.588.426a3.1,3.1,0,0,1,2.191,2.193l.426,1.588a3.1,3.1,0,0,1-.8,2.993l-5.08,5.08a.805.805,0,0,0,.461,1.367,9.4,9.4,0,0,0,10.509-9.8A7.212,7.212,0,0,1,437.116,341.193Z" transform="translate(-376.993 -283.845)" fill="#ffb700"/><path d="M0,0H95.071a0,0,0,0,1,0,0V41.347a2.508,2.508,0,0,1-2.508,2.508H2.508A2.508,2.508,0,0,1,0,41.347V0A0,0,0,0,1,0,0Z" transform="translate(0 40.853)" fill="#6582db"/><g transform="translate(15.754 40.853)" opacity="0.3"><path d="M411.589,327.895h0a4.023,4.023,0,0,1-4.024-4.024V307.3h8.051V323.87A4.025,4.025,0,0,1,411.589,327.895Z" transform="translate(-407.565 -307.302)"/><path d="M431.937,327.895h0a4.023,4.023,0,0,1-4.024-4.024V307.3h8.051V323.87A4.025,4.025,0,0,1,431.937,327.895Z" transform="translate(-372.399 -307.302)"/></g><rect width="90.899" height="4.764" transform="translate(2.086 36.088)" opacity="0.3"/></g><g transform="translate(442.858 39.601)"><rect width="253.439" height="445.245" rx="15.256" fill="#3c57ab"/><path d="M689.1,172.45H651.995a7.956,7.956,0,0,0-7.691,5.915l-1.181,4.45a8.554,8.554,0,0,1-8.269,6.359H573.16a8.553,8.553,0,0,1-8.269-6.359l-1.181-4.45a7.956,7.956,0,0,0-7.691-5.915H518.907A31.749,31.749,0,0,0,487.159,204.2v362a31.75,31.75,0,0,0,31.748,31.751h170.2A31.75,31.75,0,0,0,720.855,566.2v-362A31.751,31.751,0,0,0,689.1,172.45Z" transform="translate(-477.287 -162.58)" fill="#fff"/><path d="M559.529,177.984H524.638a1.648,1.648,0,0,1-1.648-1.648h0a1.65,1.65,0,0,1,1.648-1.648h34.891a1.65,1.65,0,0,1,1.648,1.648h0A1.648,1.648,0,0,1,559.529,177.984Z" transform="translate(-415.364 -158.712)" opacity="0.2"/><path d="M524.247,176.936a2.6,2.6,0,1,1-2.6-2.595A2.6,2.6,0,0,1,524.247,176.936Z" transform="translate(-422.164 -159.312)" opacity="0.2"/><rect width="15.577" height="7.223" transform="translate(179.505 15.66)" fill="#52586e"/><path d="M564.067,181.8l-6.3-7.223h12.6Z" transform="translate(-355.258 -158.912)" fill="#52586e"/><rect width="57.527" height="57.527" rx="3.305" transform="translate(26.985 57.853)" fill="#c2c2c2"/><rect width="57.527" height="57.527" rx="3.305" transform="translate(97.956 57.853)" fill="#c2c2c2"/><rect width="57.527" height="57.527" rx="3.305" transform="translate(168.927 57.853)" fill="#c2c2c2"/><g transform="translate(26.985 137.64)"><rect width="199.47" height="40.126" rx="2.39" fill="#ff927d"/><path d="M584.832,219.283h-32.64v40.126h32.64a6.52,6.52,0,0,0,6.52-6.52V225.8A6.52,6.52,0,0,0,584.832,219.283Z" transform="translate(-391.881 -219.283)" fill="#ff6344"/><g transform="translate(12.223 8.182)"><path d="M610.6,226.694H500.119a2.206,2.206,0,0,1-2.207-2.2h0a2.206,2.206,0,0,1,2.207-2.207H610.6a2.206,2.206,0,0,1,2.2,2.207h0A2.205,2.205,0,0,1,610.6,226.694Z" transform="translate(-497.912 -222.282)" fill="#ff6344"/><path d="M610.6,230.238H500.119a2.206,2.206,0,0,1-2.207-2.2h0a2.2,2.2,0,0,1,2.207-2.2H610.6a2.2,2.2,0,0,1,2.2,2.2h0A2.205,2.205,0,0,1,610.6,230.238Z" transform="translate(-497.912 -216.152)" fill="#ff6344"/><path d="M545.65,233.787H500.119a2.206,2.206,0,0,1-2.207-2.207h0a2.206,2.206,0,0,1,2.207-2.2H545.65a2.205,2.205,0,0,1,2.2,2.2h0A2.206,2.206,0,0,1,545.65,233.787Z" transform="translate(-497.912 -210.024)" fill="#ff6344"/></g><circle cx="7.403" cy="7.403" r="7.403" transform="translate(172.487 12.66)" fill="#fff"/></g><g transform="translate(26.985 206.687)"><rect width="199.47" height="40.126" rx="2.39" fill="#c2c2c2"/></g><g transform="translate(26.985 275.734)"><rect width="199.47" height="40.126" rx="2.39" fill="#a1b8ff"/><path d="M584.832,269.9h-32.64v40.127h32.64a6.52,6.52,0,0,0,6.52-6.52V276.421A6.52,6.52,0,0,0,584.832,269.9Z" transform="translate(-391.881 -269.9)" fill="#6582db"/><g transform="translate(12.223 8.182)"><path d="M610.6,277.311H500.119a2.206,2.206,0,0,1-2.207-2.2h0a2.206,2.206,0,0,1,2.207-2.207H610.6a2.206,2.206,0,0,1,2.2,2.207h0A2.205,2.205,0,0,1,610.6,277.311Z" transform="translate(-497.912 -272.899)" fill="#7697ff"/><path d="M610.6,280.857H500.119a2.206,2.206,0,0,1-2.207-2.2h0a2.206,2.206,0,0,1,2.207-2.207H610.6a2.206,2.206,0,0,1,2.2,2.207h0A2.205,2.205,0,0,1,610.6,280.857Z" transform="translate(-497.912 -266.771)" fill="#7697ff"/><path d="M545.65,284.4H500.119a2.206,2.206,0,0,1-2.207-2.207h0a2.206,2.206,0,0,1,2.207-2.2H545.65a2.205,2.205,0,0,1,2.2,2.2h0A2.206,2.206,0,0,1,545.65,284.4Z" transform="translate(-497.912 -260.641)" fill="#7697ff"/></g><circle cx="7.403" cy="7.403" r="7.403" transform="translate(172.487 12.66)" fill="#fff"/></g></g><g transform="translate(526.059 240.245)" opacity="0.2"><rect width="188.775" height="37.975" rx="2.262" transform="matrix(0.99, -0.14, 0.14, 0.99, 0, 26.478)"/></g><g transform="translate(618.963 105.224)" opacity="0.2"><rect width="57.527" height="57.527" rx="3.305" transform="translate(9.673 0) rotate(9.68)"/></g><g transform="translate(323.111 375.689)"><rect width="172.579" height="128.162" fill="#6582db"/><g transform="translate(16.286 32.006)" opacity="0.3"><path d="M515.5,326.682l5.4-5.4L509.78,310.154l-5.4,5.4a5.886,5.886,0,0,1-10.048-4.163v-7.642H478.6V311.4a5.888,5.888,0,0,1-10.051,4.163l-5.4-5.4L452.018,321.28l5.4,5.4a5.886,5.886,0,0,1-4.163,10.048h-7.642v15.734h7.642a5.886,5.886,0,0,1,4.163,10.048l-5.4,5.4,11.126,11.126,5.4-5.4A5.888,5.888,0,0,1,478.6,377.8v7.642h15.731V377.8a5.886,5.886,0,0,1,10.048-4.163l5.4,5.4L520.9,367.913l-5.4-5.4a5.886,5.886,0,0,1,4.163-10.048H527.3V336.73h-7.642A5.885,5.885,0,0,1,515.5,326.682Zm-29.039,30.7A12.782,12.782,0,1,1,499.244,344.6,12.78,12.78,0,0,1,486.462,357.377Z" transform="translate(-445.618 -303.754)" fill="url(#f)"/><path d="M496.828,320.175a10.618,10.618,0,0,0-.565-16.225.908.908,0,0,0-1.46.72v8.119a3.5,3.5,0,0,1-1.752,3.031l-1.61.928a3.489,3.489,0,0,1-3.5,0l-1.61-.928a3.508,3.508,0,0,1-1.751-3.034v-8.122a.9.9,0,0,0-1.449-.723,10.6,10.6,0,0,0-.551,16.249,8.221,8.221,0,0,1,2.562,6.141V362.86A8.226,8.226,0,0,1,482.581,369a10.6,10.6,0,0,0,.551,16.249.9.9,0,0,0,1.449-.723V376.4a3.507,3.507,0,0,1,1.751-3.031l1.61-.93a3.5,3.5,0,0,1,3.5,0l1.61.93A3.5,3.5,0,0,1,494.8,376.4v8.119a.908.908,0,0,0,1.46.72,10.618,10.618,0,0,0,.565-16.225,8.154,8.154,0,0,1-2.586-6.065V326.239A8.154,8.154,0,0,1,496.828,320.175Z" transform="translate(-387.819 -303.753)" fill="url(#f)"/><path d="M502.222,356.056a2.16,2.16,0,0,1-.09-4.313l-.082-3.939h-3.058v-32.46l2.112-1.266-2.99-10.324h-2.589l-2.993,10.324,2.114,1.266V347.8h-3.058l-.082,3.939a2.16,2.16,0,0,1-.09,4.313l-.628,29.934H502.85Z" transform="translate(-367.555 -303.754)" fill="url(#h)"/></g><rect width="172.579" height="18.277" fill="#3c57ab"/><g transform="translate(18.643 32.006)"><path d="M520.526,352.463h7.642V336.73h-7.642a5.886,5.886,0,0,1-4.163-10.048l5.4-5.4-11.126-11.126-5.4,5.4a5.888,5.888,0,0,1-10.051-4.163v-7.642H479.458V311.4a5.887,5.887,0,0,1-10.048,4.163l-5.4-5.4L452.882,321.28l5.4,5.4a5.885,5.885,0,0,1-4.161,10.048h-7.642v15.734h7.642a5.885,5.885,0,0,1,4.161,10.048l-5.4,5.4,11.123,11.126,5.4-5.4a5.886,5.886,0,0,1,10.048,4.163v7.642h15.731V377.8a5.888,5.888,0,0,1,10.051-4.163l5.4,5.4,11.126-11.126-5.4-5.4A5.886,5.886,0,0,1,520.526,352.463Zm-33.2,4.913A12.782,12.782,0,1,1,500.1,344.6,12.781,12.781,0,0,1,487.323,357.377Z" transform="translate(-446.482 -303.754)" fill="#fff"/><path d="M495.107,362.953V326.239a8.151,8.151,0,0,1,2.584-6.065,10.613,10.613,0,0,0-.565-16.225.909.909,0,0,0-1.46.72v8.119a3.5,3.5,0,0,1-1.751,3.031l-1.607.928a3.494,3.494,0,0,1-3.5,0l-1.607-.928a3.5,3.5,0,0,1-1.751-3.034v-8.122a.9.9,0,0,0-1.449-.723,10.6,10.6,0,0,0-.551,16.249,8.219,8.219,0,0,1,2.559,6.141V362.86A8.224,8.224,0,0,1,483.447,369,10.6,10.6,0,0,0,484,385.25a.9.9,0,0,0,1.449-.723V376.4a3.5,3.5,0,0,1,1.751-3.031l1.607-.93a3.508,3.508,0,0,1,3.5,0l1.607.93a3.5,3.5,0,0,1,1.751,3.031v8.119a.909.909,0,0,0,1.46.72,10.613,10.613,0,0,0,.565-16.225A8.151,8.151,0,0,1,495.107,362.953Z" transform="translate(-388.685 -303.753)" fill="#c2c2c2"/><path d="M497.873,303.754h-2.591l-2.99,10.324,2.114,1.264V347.8h4.343V315.342l2.114-1.264Z" transform="translate(-367.314 -303.754)" fill="#c2c2c2"/><path d="M500.983,325.987A2.166,2.166,0,0,1,503,323.84l-.082-3.94H492.449l-.082,3.94a2.159,2.159,0,0,1-.09,4.313l-.625,29.934h12.059l-.625-29.934A2.173,2.173,0,0,1,500.983,325.987Z" transform="translate(-368.419 -275.85)" fill="#333745"/><path d="M484.686,353.292h0a1.365,1.365,0,0,1-1.364-1.364V312.334a1.367,1.367,0,0,1,1.364-1.367h0a1.368,1.368,0,0,1,1.367,1.367v39.594A1.365,1.365,0,0,1,484.686,353.292Z" transform="translate(-382.815 -291.288)" fill="#fff"/></g><g transform="translate(16.287 5.635)"><circle cx="3.503" cy="3.503" r="3.503" fill="#fff"/><circle cx="3.503" cy="3.503" r="3.503" transform="translate(16.969)" fill="#fff"/><path d="M465.064,297.591a3.5,3.5,0,1,1-3.5-3.5A3.5,3.5,0,0,1,465.064,297.591Z" transform="translate(-424.12 -294.088)" fill="#fff"/></g></g><g transform="translate(516.207 394.685)"><g opacity="0.2"><path d="M510.426,408.151H658.72l7.874-96.052a12.125,12.125,0,0,0-12.083-13.115H530.544a12.125,12.125,0,0,0-12.083,11.134Z" transform="translate(-510.426 -298.985)"/></g><g transform="translate(9.576)"><path d="M671.539,408.151H523.245l-9.276-100.791a7.671,7.671,0,0,1,7.639-8.376H654.494a7.671,7.671,0,0,1,7.639,6.971Z" transform="translate(-513.936 -298.985)" fill="#ffb700"/><path d="M526.651,308.88a24.9,24.9,0,0,0,24.284,22.238,19.946,19.946,0,0,0,20.189-22.238,23.771,23.771,0,0,0-3.255-9.9H528.083A21.045,21.045,0,0,0,526.651,308.88Z" transform="translate(-492.123 -298.985)" fill="#ffdb82"/><path d="M535.061,319.6l-19.032,20.961,3.6,39.1h99.776L552.92,318.781A12.615,12.615,0,0,0,535.061,319.6Z" transform="translate(-510.319 -270.497)" fill="#3c57ab"/><path d="M529.941,395.274H643.879l-6.812-74.022-12.634-11.568a12.367,12.367,0,0,0-17.512.808Z" transform="translate(-486.276 -286.108)" fill="#6582db"/></g></g><g transform="translate(350.259 85.204)"><circle cx="50.095" cy="50.095" r="50.095" transform="translate(0 98.912) rotate(-80.835)" opacity="0.3"/><circle cx="47.861" cy="47.861" r="47.861" transform="translate(11.807 4.847)" fill="#ff6344"/><g transform="translate(29.019 33.564)"><path d="M460.236,212.013a1.621,1.621,0,0,1,.33-1.031,3.854,3.854,0,0,1,.947-.816l14.522-9.813a1.222,1.222,0,0,1,.286-.109.909.909,0,0,1,1.121.9v1.981a1.6,1.6,0,0,1-.464,1.146,5.133,5.133,0,0,1-.944.791l-11.619,7.876,11.619,7.876a5.263,5.263,0,0,1,.944.794,1.589,1.589,0,0,1,.464,1.143v1.981a.888.888,0,0,1-.265.66.9.9,0,0,1-.66.265.884.884,0,0,1-.2-.022,1.223,1.223,0,0,1-.286-.109l-14.522-9.813a3.854,3.854,0,0,1-.947-.816,1.624,1.624,0,0,1-.33-1.034Z" transform="translate(-460.236 -193.751)" fill="#fff"/><path d="M487.062,234.774a1.107,1.107,0,0,1,.087.4.974.974,0,0,1-.966.968h-1.32a1.8,1.8,0,0,1-1.32-.439,2.654,2.654,0,0,1-.617-.881l-14.874-35.6a1.073,1.073,0,0,1-.09-.4.988.988,0,0,1,.971-.971h1.451a1.78,1.78,0,0,1,1.274.42,2.95,2.95,0,0,1,.663.9Z" transform="translate(-446.884 -197.85)" fill="#fff"/><path d="M493.6,213.863a1.608,1.608,0,0,1-.33,1.034,3.943,3.943,0,0,1-.944.816l-14.525,9.813a1.224,1.224,0,0,1-.287.109.943.943,0,0,1-.857-.243.888.888,0,0,1-.265-.66v-1.981a1.609,1.609,0,0,1,.461-1.143,5.274,5.274,0,0,1,.947-.794l11.619-7.876-11.619-7.876a5.144,5.144,0,0,1-.947-.791,1.615,1.615,0,0,1-.461-1.146v-1.981a.9.9,0,0,1,.925-.922.9.9,0,0,1,.2.022,1.223,1.223,0,0,1,.287.109l14.525,9.813a3.943,3.943,0,0,1,.944.816,1.605,1.605,0,0,1,.33,1.031Z" transform="translate(-432.305 -193.751)" fill="#fff"/></g></g><g transform="translate(249.677 45.325)"><circle cx="40.495" cy="40.495" r="40.495" transform="translate(0 57.269) rotate(-45)" opacity="0.3"/><circle cx="40.495" cy="40.495" r="40.495" transform="translate(20.728 13.347)" fill="#ff6344"/><g transform="translate(43.728 30.626)"><path d="M464.093,199.647a6.6,6.6,0,0,0-4.231,1.555l-17.883-10.326a6.5,6.5,0,0,0,.112-1.113,6.665,6.665,0,1,0-6.665,6.665,6.59,6.59,0,0,0,4.229-1.552L457.537,205.2a5.589,5.589,0,0,0,0,2.226l-17.884,10.324a6.639,6.639,0,1,0,2.436,5.113,6.523,6.523,0,0,0-.112-1.113l17.883-10.324a6.654,6.654,0,1,0,4.231-11.78Z" transform="translate(-428.76 -180.528)" opacity="0.3"/><path d="M464.093,198.705a6.6,6.6,0,0,0-4.231,1.555l-17.883-10.326a6.5,6.5,0,0,0,.112-1.113,6.74,6.74,0,1,0-2.436,5.113l17.884,10.326a5.589,5.589,0,0,0,0,2.226L439.654,216.81a6.639,6.639,0,1,0,2.436,5.113,6.523,6.523,0,0,0-.112-1.113l17.883-10.324a6.654,6.654,0,1,0,4.231-11.78Z" transform="translate(-428.76 -182.156)" fill="#fff"/></g></g><g transform="translate(527.63 110.578)"><g transform="translate(187.912 356.811)"><rect width="10.217" height="36.462" fill="#3c57ab"/><rect width="10.217" height="36.462" transform="translate(73.462)" fill="#3c57ab"/></g><g transform="translate(187.912 356.811)" opacity="0.3"><rect width="10.217" height="15.791" fill="url(#i)"/><rect width="10.217" height="15.791" transform="translate(73.462)" fill="url(#i)"/></g><path d="M678.6,333.376H585.089a5.369,5.369,0,0,1-5.369-5.369h0a5.369,5.369,0,0,1,5.369-5.369H678.6a5.369,5.369,0,0,1,5.369,5.369h0A5.369,5.369,0,0,1,678.6,333.376Z" transform="translate(-402.095 25.999)" fill="#3c57ab"/><path d="M615.119,313.059,612.435,332.2s3.577,6.054,2.475,8.531-32.409,2.8-32.949.644c-.876-3.5,19.19-10,19.19-10l-.044-18.317Z" transform="translate(-398.271 9.444)" fill="#ff927d"/><path d="M614.908,328.475c.671-1.509-.393-4.341-1.329-6.327-9.773,1.765-13.8-.415-15.444-2-5.563,1.972-16.836,6.321-16.173,8.968C582.5,331.271,613.808,330.952,614.908,328.475Z" transform="translate(-398.269 21.701)" fill="#ff6344"/><path d="M626.077,310.728l5.677,19.007s5.036,4.908,4.619,7.587-30.553,11.164-31.636,9.23c-1.76-3.154,15.914-14.667,15.914-14.667l-8.1-17.5Z" transform="translate(-359.073 5.416)" fill="#ff927d"/><path d="M636.372,324.124c.254-1.632-1.514-4.087-2.936-5.759-8.97,4.256-13.428,3.206-15.428,2.106-4.856,3.358-14.6,10.5-13.27,12.88C605.819,335.288,635.957,326.8,636.372,324.124Z" transform="translate(-359.072 18.614)" fill="#ff6344"/><path d="M606.9,242.671s-27.386,108.523-19.85,194.371h23.774s9.8-44.29,5.664-88.121l16.519-105.964Z" transform="translate(-391.687 -112.201)" fill="#6582db"/><path d="M609.865,263.042S590.8,314.06,590.8,395.8" transform="translate(-382.955 -76.995)" fill="none" stroke="#fff" stroke-miterlimit="10" stroke-width="0.236"/><path d="M601.5,242.671s-6.755,26.78-12.634,64.249c3.629,23.675,10.465,53.8,23.083,74.174a256.632,256.632,0,0,0-.862-32.174l16.519-105.964Z" transform="translate(-386.285 -112.201)" opacity="0.3" fill="url(#k)"/><path d="M599.294,242.671s-13.074,103.56,23.378,194.371h23.375s-.145-65.376-15.278-90.756c0,0,7.091-82.152-8.1-103.143Z" transform="translate(-372.209 -112.201)" fill="#6582db"/><path d="M602.329,244.353S597.8,354.316,627.573,429.1" transform="translate(-363.447 -109.294)" fill="none" stroke="#fff" stroke-miterlimit="10" stroke-width="0.236"/><path d="M632.13,243.143l-9.14-.186h0l-14.236-.286-.016.131-11.851-.131s-2.281,9.049-5.345,23.967c23.651,5.2,40.1-2.9,46.748-7.211C636.831,252.6,634.84,246.889,632.13,243.143Z" transform="translate(-381.668 -112.201)" opacity="0.3" fill="url(#l)"/><path d="M608.838,320.3h23.375s-.011-3.874-.24-10.075H605.018Q606.831,315.281,608.838,320.3Z" transform="translate(-358.375 4.543)" fill="#a1b8ff"/><path d="M585.961,310.223c.191,3.386.423,6.75.717,10.075h23.768s.824-3.732,1.893-10.075Z" transform="translate(-391.309 4.543)" fill="#a1b8ff"/><path d="M598.024,208a50.633,50.633,0,0,0-1.948,27.975c2.335,10.13,5.061,22.39,6.032,34.457s4.215,36.754,29.566,41.594c9.893,1.888,15.3-6.392,18.557-12.512s-16.432-51-16.432-51l-15.344-45.809Z" transform="translate(-375.798 -181.268)" fill="#333745"/><path d="M663.2,240.244l-44.574,4.48-35.57-24.265s-3.571-10.877-11.625-11.761l-1.2,12.528,36.7,32.376a22.665,22.665,0,0,0,17.223,5.557L664.1,255.2Z" transform="translate(-418.484 -170.913)" fill="#ff927d"/><path d="M588.772,239.228a22.645,22.645,0,0,0,3.359-.052l39.935-3.959-.895-14.956L596.9,223.7Z" transform="translate(-386.451 -150.93)" opacity="0.3" fill="url(#m)"/><g transform="translate(95.306 0)"><rect width="57.527" height="57.527" rx="3.305" transform="matrix(0.986, 0.168, -0.168, 0.986, 9.673, 0)" fill="#6582db"/><path d="M573.578,202.649l2.161,8.684a.83.83,0,0,0,.589.6l8.632,2.368a.833.833,0,0,1,.221,1.509l-7.593,4.742a.832.832,0,0,0-.393.745l.418,8.94a.833.833,0,0,1-1.367.677l-6.856-5.756a.838.838,0,0,0-.829-.142l-8.375,3.159a.831.831,0,0,1-1.064-1.091l3.356-8.3a.84.84,0,0,0-.123-.835l-5.59-6.987a.833.833,0,0,1,.707-1.353l8.929.63a.835.835,0,0,0,.753-.374l4.919-7.478A.835.835,0,0,1,573.578,202.649Z" transform="translate(-537.395 -182.458)" fill="#fff"/></g><path d="M568.555,209.909l7.2,11.525,1.966-11.525Z" transform="translate(-421.391 -168.819)" opacity="0.3" fill="url(#n)"/><path d="M579.369,209.351s-11.147.36-11.049,1.528,6.908,1.361,6.908,1.361,2.442,8.051,11.147,7.091C586.375,219.331,584.29,212.106,579.369,209.351Z" transform="translate(-421.799 -169.784)" fill="#ff927d"/><g transform="translate(0 123.99)"><rect width="188.775" height="37.975" rx="2.262" transform="matrix(0.99, -0.14, 0.14, 0.99, 0, 26.478)" fill="#a1b8ff"/><rect width="188.775" height="37.975" rx="2.262" transform="matrix(0.99, -0.14, 0.14, 0.99, 0, 26.478)" fill="#a1b8ff"/><path d="M600.256,240.652l-30.583,4.332,5.326,37.6,30.586-4.332a6.174,6.174,0,0,0,5.244-6.976l-3.6-25.381A6.171,6.171,0,0,0,600.256,240.652Z" transform="translate(-419.458 -239.786)" fill="#6582db"/><g transform="translate(12.812 17.544)"><path d="M625.218,250.881,521.69,265.545a2.085,2.085,0,0,1-2.36-1.773h0a2.089,2.089,0,0,1,1.773-2.36l103.527-14.664a2.086,2.086,0,0,1,2.36,1.773h0A2.09,2.09,0,0,1,625.218,250.881Z" transform="translate(-519.31 -246.726)" fill="#6582db"/><path d="M625.686,254.2,522.161,268.868a2.087,2.087,0,0,1-2.36-1.773h0a2.087,2.087,0,0,1,1.773-2.36L625.1,250.071a2.082,2.082,0,0,1,2.357,1.773h0A2.086,2.086,0,0,1,625.686,254.2Z" transform="translate(-518.496 -240.983)" fill="#6582db"/><path d="M565.295,260.687l-42.664,6.043a2.09,2.09,0,0,1-2.36-1.773h0a2.089,2.089,0,0,1,1.776-2.36l42.664-6.043a2.084,2.084,0,0,1,2.357,1.773h0A2.085,2.085,0,0,1,565.295,260.687Z" transform="translate(-517.683 -229.779)" fill="#6582db"/></g><path d="M588.748,251.594a7.006,7.006,0,1,1-7.917-5.953A7.007,7.007,0,0,1,588.748,251.594Z" transform="translate(-410.588 -231.178)" fill="#fff"/></g><path d="M611.915,240.652l-48.988,6.941.415,5.29,57.636,7.74L618.891,245.9A6.171,6.171,0,0,0,611.915,240.652Z" transform="translate(-431.117 -115.796)" opacity="0.3" fill="url(#o)"/><path d="M602.959,203.734s-3.408,8.032-6.891,11.21l2.54,1-1.585,7.625a4.491,4.491,0,0,0,3.672,5.347l3.983.652a4.284,4.284,0,0,1,3.511,3.386l2.777,13.78H628.9l-2.057-42Z" transform="translate(-373.842 -179.492)" fill="#ff927d"/><path d="M620.744,217.781a19.216,19.216,0,0,0-14.348,7.644c-2.843,3.784-6.537,8.728-9.721,13.057a13.611,13.611,0,0,0,1.009,17.335,7.8,7.8,0,0,1,1.934,7.082l-7.773,33.24a98.193,98.193,0,0,0,21.968,2.919,4.637,4.637,0,0,0,4.488-3.225l1.716-5.4,1.9,4.763a4.611,4.611,0,0,0,5.11,2.846,90.366,90.366,0,0,0,11.139-2.938s-5.83-32.678.971-75.817A71.738,71.738,0,0,0,620.744,217.781Z" transform="translate(-381.137 -155.372)" fill="#5f9e7a"/><path d="M599.641,247.7c-.014.074-.005.147-.022.221l-7.773,33.24s1.885.518,4.993,1.116c17.853-16.173,31.694-55.917,31.694-55.917Z" transform="translate(-381.137 -140.391)" opacity="0.3" fill="url(#p)"/><path d="M680.333,222.79c-3.8-2.739-9.178-1.61-12.042,2.1l-30.177,39.032-49.23,10.37-8.962-1.413a13.974,13.974,0,0,0-10.22,2.376l-8.779,6.182,2.185,3.74a6.023,6.023,0,0,0,6.706,2.794l9.674-2.494,9.726-2.453h0l50.18-4.2a17.643,17.643,0,0,0,12.2-6.428l30.384-37.243A8.553,8.553,0,0,0,680.333,222.79Z" transform="translate(-434.582 -149.181)" fill="#ff927d"/><path d="M596.068,214.14l15.043,3.069a7.409,7.409,0,0,1,5.931,7.691c-1.045,17.294-.829,64.9,31.232,80.755,0,0,5.107-8.2,2.927-24.611-2.725-20.5-16.047-20.3-14.23-39.881,1.533-16.525,4.215-36.593-14.129-41.18C609.922,196.756,599.3,203.241,596.068,214.14Z" transform="translate(-373.842 -187.409)" fill="#414657"/></g><line x2="525.524" transform="translate(285.591 503.852)" fill="none" stroke="#333745" stroke-miterlimit="10" stroke-width="0.942"/><g transform="translate(346.073 25.708)"><path d="M459.414,169.415a5.675,5.675,0,1,1-5.675-5.675A5.676,5.676,0,0,1,459.414,169.415Z" transform="translate(-448.065 -163.74)" fill="#fff"/><path d="M468.246,169.415a5.676,5.676,0,1,1-5.675-5.675A5.678,5.678,0,0,1,468.246,169.415Z" transform="translate(-432.807 -163.74)" fill="#fff"/><circle cx="5.675" cy="5.675" r="5.675" transform="translate(48.177)" fill="#fff"/><path d="M485.905,169.415a5.676,5.676,0,1,1-5.675-5.675A5.676,5.676,0,0,1,485.905,169.415Z" transform="translate(-402.288 -163.74)" fill="#fff"/></g><g transform="translate(453.876)"><line y2="25.708" transform="translate(12.854)" stroke-width="1.884" stroke="#fff" stroke-linecap="round" stroke-linejoin="round" fill="none"/><line x1="25.709" transform="translate(0 12.854)" stroke-width="1.884" stroke="#fff" stroke-linecap="round" stroke-linejoin="round" fill="none"/></g><g transform="translate(805.532 379.807)"><line y2="25.708" transform="translate(12.854)" stroke-width="1.884" stroke="#fff" stroke-linecap="round" stroke-linejoin="round" fill="none"/><line x1="25.708" transform="translate(0 12.854)" stroke-width="1.884" stroke="#fff" stroke-linecap="round" stroke-linejoin="round" fill="none"/></g><g transform="translate(717.362 58.875)"><line x2="0.479" y2="25.704" transform="translate(12.612)" stroke-width="1.884" stroke="#fff" stroke-linecap="round" stroke-linejoin="round" fill="none"/><line x1="25.704" y2="0.479" transform="translate(0 12.613)" stroke-width="1.884" stroke="#fff" stroke-linecap="round" stroke-linejoin="round" fill="none"/></g><g transform="translate(64.639 233.436)"><line x2="0.479" y2="25.704" transform="translate(12.613)" stroke-width="1.884" stroke="#fff" stroke-linecap="round" stroke-linejoin="round" fill="none"/><line x1="25.704" y2="0.479" transform="translate(0 12.612)" stroke-width="1.884" stroke="#fff" stroke-linecap="round" stroke-linejoin="round" fill="none"/></g></g></g></svg>