<svg xmlns="http://www.w3.org/2000/svg" width="822.027" height="686.755" viewBox="0 0 822.027 686.755"><g transform="translate(-368.09 -127.227)"><g transform="translate(368.09 127.227)"><g transform="translate(0 25.181)"><path d="M630.8,640.289c18.151-.026,32.258-12.712,31.49-28.343l-21.548-444.77c-.768-15.631-16.121-28.276-34.273-28.25l-206.857.293c-18.164.026-32.258,12.712-31.488,28.343l21.546,444.77c.768,15.631,16.109,28.276,34.273,28.25Z" transform="translate(-368.09 -138.926)" fill="#c5e0f9"/></g><path d="M371.711,156.59l23.26-24.8L673.913,614.245,650.82,638.876Z" transform="translate(-363.917 -121.966)" fill="#c5e0f9"/><path d="M379.487,161.3l-.269-5.443c-.764-15.622,13.315-28.3,31.488-28.328l206.849-.3c18.149-.017,33.509,12.622,34.273,28.261l.192,3.995,9.817,197.01,11.556,243.748c.764,15.639-13.356,28.339-31.507,28.354l-206.849.284c-18.171.043-33.509-12.607-34.275-28.244l-.2-4.262-2.721-66.705c-1.02-9.214-2.071-18.627-.928-18.627l-17.4-349.354C378.647,161.691,378.968,161.483,379.487,161.3Z" transform="translate(-355.548 -127.227)" fill="#f7f8f9"/><g transform="translate(175.191 473.085)"><path d="M464.081,371.105c7.727-.011,13.728-5.413,13.4-12.064s-6.86-12.034-14.585-12.021-13.728,5.411-13.4,12.062S456.356,371.116,464.081,371.105Z" transform="translate(-449.483 -347.02)" fill="#c5e0f9"/></g><path d="M651.746,142.212,672.9,578.981l-272.628.124L379.221,144.418Z" transform="translate(-355.263 -109.958)" fill="#1e377e"/><path d="M409.382,354.68l206.612-.095a10.947,10.947,0,0,0,10.93-11.479L625.146,306.4a10.948,10.948,0,0,0-10.936-10.418H407.754a10.949,10.949,0,0,0-10.939,11.429l1.623,36.8A10.949,10.949,0,0,0,409.382,354.68Z" transform="translate(-334.999 67.25)" fill="#ff405f"/><path d="M401.442,398.5,391.355,195a10.948,10.948,0,0,1,10.936-11.49H608.938a10.948,10.948,0,0,1,10.936,10.418l9.856,203.5a10.948,10.948,0,0,1-10.936,11.479H412.378A10.949,10.949,0,0,1,401.442,398.5Z" transform="translate(-341.295 -62.361)" fill="#fff" opacity="0.15"/><text transform="translate(80.944 397.904)" fill="#eee" font-size="23" font-family="Montserrat-Black, Montserrat" font-weight="800"><tspan x="0" y="0">VENDA AGORA</tspan></text><g transform="translate(96.46 174.485)"><path d="M560.359,228.279l-.084,25.894H414.043a17.62,17.62,0,0,1,.019-5.771c1.134-7.656,7.538-20.123,37.056-20.123H560.359Z" transform="translate(-411.847 -185.259)" fill="#cf0833"/><path d="M513.451,226.848l-.045,13.8H454.567l.075-12.338h22.94a24.89,24.89,0,0,0,17.307-7h0a13.357,13.357,0,0,1,9.29-3.758h0A9.272,9.272,0,0,1,513.451,226.848Z" transform="translate(-364.893 -197.627)" fill="#cf0833"/><path d="M448.5,251.312s.82-7.038,4.32-27.846,21.49-15.616,26.24-11.061c7.025,6.739,6.373,37.409-7.843,38.907C465.733,251.889,459.276,251.312,448.5,251.312Z" transform="translate(-371.884 -208.292)" fill="#fff"/><path d="M500.433,228.279H491.8a26,26,0,0,0-25.977,25.894h34.525Z" transform="translate(-351.921 -185.259)" fill="#e00838"/><path d="M429.626,228.279h53.683A14.417,14.417,0,0,1,468.9,242.64H434.406Z" transform="translate(-393.636 -185.259)" fill="#b0072c"/><path d="M484.652,254.173H412.925l.019-5.771c1.134-7.656,7.538-20.123,37.056-20.123h8.842A25.792,25.792,0,0,1,484.652,254.173Z" transform="translate(-412.882 -185.259)" fill="#fff"/><path d="M412.949,240.309H561.333l-.044,13.563H412.9l.034-10.481" transform="translate(-412.905 -171.395)" fill="#fff"/></g><circle cx="36.834" cy="36.834" r="36.834" transform="translate(187.077 287.823) rotate(-45)" fill="#ffcd53"/><text transform="matrix(0.985, 0.17, -0.17, 0.985, 239.682, 283.005)" fill="#fff" font-size="21" font-family="Montserrat-ExtraBold, Montserrat" font-weight="800"><tspan x="-22.985" y="0">50%</tspan></text><text transform="matrix(0.985, 0.17, -0.17, 0.985, 234.924, 304.717)" fill="#fff" font-size="21" font-family="Montserrat-ExtraBold, Montserrat" font-weight="800"><tspan x="-22.365" y="0">OFF</tspan></text><path d="M408.271,253.691l-11.6-11.6,11.6-11.6Z" transform="translate(-335.158 -8.235)" fill="#f7f8f9"/><path d="M491.434,253.691l11.6-11.6-11.6-11.6Z" transform="translate(-225.947 -8.235)" fill="#f7f8f9"/><path d="M459.982,167.137c-15.323,0-19.946-16.67-32.837-25.254h65.674C479.929,150.467,475.305,167.137,459.982,167.137Z" transform="translate(-300.034 -110.337)" fill="#d0e7f9"/><g transform="translate(23.958 32.256)"><path d="M379.221,144.417l60.675,70.39H714.532l-62.8-72.594Z" transform="translate(-379.221 -142.213)" fill="#fff"/><path d="M427.027,208.715h0A19.615,19.615,0,0,1,407.41,189.1V175.94h39.234V189.1A19.617,19.617,0,0,1,427.027,208.715Z" transform="translate(-346.735 -103.345)" fill="#e0405d"/><path d="M445.255,208.715h0A19.615,19.615,0,0,1,425.638,189.1V175.94h39.234V189.1A19.617,19.617,0,0,1,445.255,208.715Z" transform="translate(-325.729 -103.345)" fill="#d9dcd7"/><path d="M463.481,208.715h0A19.615,19.615,0,0,1,443.866,189.1V175.94H483.1V189.1A19.615,19.615,0,0,1,463.481,208.715Z" transform="translate(-304.723 -103.345)" fill="#e0405d"/><path d="M481.71,208.715h0A19.617,19.617,0,0,1,462.093,189.1V175.94h39.234V189.1A19.615,19.615,0,0,1,481.71,208.715Z" transform="translate(-283.718 -103.345)" fill="#d9dcd7"/><path d="M499.938,208.715h0A19.617,19.617,0,0,1,480.321,189.1V175.94h39.234V189.1A19.615,19.615,0,0,1,499.938,208.715Z" transform="translate(-262.711 -103.345)" fill="#e0405d"/><path d="M518.166,208.715h0A19.615,19.615,0,0,1,498.549,189.1V175.94h39.234V189.1A19.615,19.615,0,0,1,518.166,208.715Z" transform="translate(-241.705 -103.345)" fill="#d9dcd7"/><path d="M0,0H39.234a0,0,0,0,1,0,0V23.663a9.114,9.114,0,0,1-9.114,9.114H9.114A9.114,9.114,0,0,1,0,23.663V0A0,0,0,0,1,0,0Z" transform="translate(296.078 72.594)" fill="#e0405d"/><path d="M418.454,143.237H379.221l60.675,70.39h39.234Z" transform="translate(-379.221 -141.033)" fill="#ff506d"/><path d="M454.385,142.8l-38.961.316,61.218,71.02h39.234Z" transform="translate(-337.499 -141.539)" fill="#ff506d"/><path d="M490.589,142.5l-38.962.315,61.762,71.651h39.234Z" transform="translate(-295.779 -141.877)" fill="#ff506d"/><path d="M526.57,142.213l-38.74.313,62.3,72.281h39.234Z" transform="translate(-254.057 -142.213)" fill="#ff506d"/></g></g><path d="M630.226,433.62l63.655-183.982,121.95-8.67" transform="translate(302.089 131.077)" fill="none" stroke="#330e0c" stroke-linecap="round" stroke-miterlimit="10" stroke-width="6"/><path d="M945.829,324.15v27.228H593.673a13.614,13.614,0,0,1,0-27.228Z" transform="translate(244.288 226.936)" fill="#0281b8"/><g transform="translate(837.961 578.314)"><path d="M757.313,336.8H586.39L602.9,541.15a34.039,34.039,0,0,0,33.944,31.318h139.5ZM646.765,553.871a8.713,8.713,0,0,1-8.674-8.179l-10.461-174.6a8.7,8.7,0,0,1,8.7-9.212h1.4a8.7,8.7,0,0,1,8.7,8.244l9.04,174.6A8.7,8.7,0,0,1,646.765,553.871Zm60.031,0a8.715,8.715,0,0,1-8.7-8.416L692.525,370.83a8.659,8.659,0,0,1,8.674-8.954h1.442a8.712,8.712,0,0,1,8.7,8.48l4.154,174.6A8.693,8.693,0,0,1,706.8,553.871Z" transform="translate(-586.39 -336.8)" fill="#0281b8"/><path d="M650.64,336.8l16.487,204.35a34.054,34.054,0,0,0,33.943,31.318H864.5V336.8Zm60.375,217.071a8.718,8.718,0,0,1-8.7-8.179l-10.439-174.6a8.685,8.685,0,0,1,8.674-9.212h1.421a8.679,8.679,0,0,1,8.674,8.244l9.04,174.6A8.694,8.694,0,0,1,711.015,553.871Zm60.031,0h-.022a8.714,8.714,0,0,1-8.7-8.416L756.754,370.83a8.677,8.677,0,0,1,8.7-8.954h1.421a8.683,8.683,0,0,1,8.7,8.48l4.176,174.6A8.706,8.706,0,0,1,771.046,553.871Zm68.726-8.674a8.708,8.708,0,0,1-8.7,8.674h-.043a8.676,8.676,0,0,1-8.674-8.674l-.71-174.6a8.676,8.676,0,0,1,8.7-8.717h1.442a8.672,8.672,0,0,1,8.674,8.717Z" transform="translate(-512.348 -336.8)" fill="#0090cf"/></g><path d="M871.8,324.15v27.228H657.935a13.614,13.614,0,1,1,0-27.228Z" transform="translate(318.319 226.936)" fill="#0090cf"/><path d="M559.517,260.309l-31.851,44.613,16.84,57.159s34.667-6.223,20.164-49.4L647,280.511l-21.219-31.16Z" transform="translate(183.897 140.737)" fill="#b54c48"/><path d="M544.63,257.568l-31.851,44.613,16.84,57.159s34.667-6.223,20.166-49.4l82.323-32.174L610.89,246.61Z" transform="translate(166.741 137.578)" fill="#c2514d"/><path d="M538.744,245.8l-37.191,39.6,10.179,62.76s34.854-5.075,21.782-48.7l83.339-29.441-20.177-31.843Z" transform="translate(153.804 127.859)" fill="#d15753"/><path d="M757.339,274.8,591.05,215.124l-101.523,5.024s-2.368,45.536,81.348,35.876L623.7,294.684s-81.744,11.888-88.483,34.8c-9.585,32.579,99.1,9.167,99.1,9.167s75.005,40.489,141.357,21.556l274.5,56.277v-125.5Z" transform="translate(139.938 101.293)" fill="#e65f5b"/><path d="M489.524,220.148H589.56L754.219,284.81l295.956,17.971v-11.8L757.336,274.8l-166.29-59.678Z" transform="translate(139.942 101.294)" fill="#fff2f4"/><line x1="56.121" y1="192.652" transform="translate(1117.92 372.045)" fill="none" stroke="#521714" stroke-linecap="round" stroke-miterlimit="10" stroke-width="6"/></g></svg>